<?xml version="1.0" encoding="utf-8" standalone="no"?>
<!DOCTYPE svg PUBLIC "-//W3C//DTD SVG 1.1//EN"
  "http://www.w3.org/Graphics/SVG/1.1/DTD/svg11.dtd">
<svg xmlns:xlink="http://www.w3.org/1999/xlink" width="406.678594pt" height="415.125025pt" viewBox="0 0 406.678594 415.125025" xmlns="http://www.w3.org/2000/svg" version="1.1">
 <metadata>
  <rdf:RDF xmlns:dc="http://purl.org/dc/elements/1.1/" xmlns:cc="http://creativecommons.org/ns#" xmlns:rdf="http://www.w3.org/1999/02/22-rdf-syntax-ns#">
   <cc:Work>
    <dc:type rdf:resource="http://purl.org/dc/dcmitype/StillImage"/>
    <dc:date>2023-03-14T05:25:43.952719</dc:date>
    <dc:format>image/svg+xml</dc:format>
    <dc:creator>
     <cc:Agent>
      <dc:title>Matplotlib v3.7.0, https://matplotlib.org/</dc:title>
     </cc:Agent>
    </dc:creator>
   </cc:Work>
  </rdf:RDF>
 </metadata>
 <defs>
  <style type="text/css">*{stroke-linejoin: round; stroke-linecap: butt}</style>
 </defs>
 <g id="figure_1">
  <g id="patch_1">
   <path d="M -0 415.125025 
L 406.678594 415.125025 
L 406.678594 0 
L -0 0 
z
" style="fill: #ffffff"/>
  </g>
  <g id="axes_1">
   <g id="patch_2">
    <path d="M 42.358594 273.312 
L 399.478594 273.312 
L 399.478594 7.2 
L 42.358594 7.2 
z
" style="fill: #ffffff"/>
   </g>
   <g id="PolyCollection_1">
    <defs>
     <path id="mc44f948bc4" d="M 58.591321 -306.474182 
L 58.591321 -220.679528 
L 59.404992 -221.131736 
L 60.218662 -221.58258 
L 61.032333 -222.032057 
L 61.846003 -222.480169 
L 62.659674 -222.926915 
L 63.473344 -223.372296 
L 64.287015 -223.816311 
L 65.100685 -224.25896 
L 65.914356 -224.700243 
L 66.728026 -225.140161 
L 67.541697 -225.578713 
L 68.355368 -226.0159 
L 69.169038 -226.45172 
L 69.982709 -226.886175 
L 70.796379 -227.319265 
L 71.61005 -227.750988 
L 72.42372 -228.181346 
L 73.237391 -228.610339 
L 74.051061 -229.037965 
L 74.864732 -229.464226 
L 75.678402 -229.889122 
L 76.492073 -230.312651 
L 77.305743 -230.734815 
L 78.119414 -231.155613 
L 78.933085 -231.575046 
L 79.746755 -231.993113 
L 80.560426 -232.409814 
L 81.374096 -232.825149 
L 82.187767 -233.239119 
L 83.001437 -233.651723 
L 83.815108 -234.062961 
L 84.628778 -234.472834 
L 85.442449 -234.881341 
L 86.256119 -235.288483 
L 87.06979 -235.694258 
L 87.88346 -236.098668 
L 88.697131 -236.501713 
L 89.510802 -236.903391 
L 90.324472 -237.303704 
L 91.138143 -237.702651 
L 91.951813 -238.100233 
L 92.765484 -238.496449 
L 93.579154 -238.891299 
L 94.392825 -239.284783 
L 95.206495 -239.676902 
L 96.020166 -240.067655 
L 96.833836 -240.457043 
L 97.647507 -240.845065 
L 98.461177 -241.231721 
L 99.274848 -241.617011 
L 100.088519 -242.000936 
L 100.902189 -242.383495 
L 101.71586 -242.764688 
L 102.52953 -243.144516 
L 103.343201 -243.522978 
L 104.156871 -243.900074 
L 104.970542 -244.275805 
L 105.784212 -244.65017 
L 106.597883 -245.023169 
L 107.411553 -245.394803 
L 108.225224 -245.76507 
L 109.038895 -246.133973 
L 109.852565 -246.501509 
L 110.666236 -246.86768 
L 111.479906 -247.232485 
L 112.293577 -247.595925 
L 113.107247 -247.957998 
L 113.920918 -248.318706 
L 114.734588 -248.678049 
L 115.548259 -249.036025 
L 116.361929 -249.392637 
L 117.1756 -249.747882 
L 117.98927 -250.101762 
L 118.802941 -250.454275 
L 119.616612 -250.805424 
L 120.430282 -251.155206 
L 121.243953 -251.503623 
L 122.057623 -251.850675 
L 122.871294 -252.19636 
L 123.684964 -252.54068 
L 124.498635 -252.883634 
L 125.312305 -253.225223 
L 126.125976 -253.565445 
L 126.939646 -253.904303 
L 127.753317 -254.241794 
L 128.566987 -254.57792 
L 129.380658 -254.91268 
L 130.194329 -255.246074 
L 131.007999 -255.578103 
L 131.82167 -255.908766 
L 132.63534 -256.238063 
L 133.449011 -256.565995 
L 134.262681 -256.892561 
L 135.076352 -257.217761 
L 135.890022 -257.541596 
L 136.703693 -257.864065 
L 137.517363 -258.185168 
L 138.331034 -258.504906 
L 139.144704 -258.823277 
L 139.958375 -259.140284 
L 140.772046 -259.455924 
L 141.585716 -259.770199 
L 142.399387 -260.083108 
L 143.213057 -260.394651 
L 144.026728 -260.704829 
L 144.840398 -261.013641 
L 145.654069 -261.321088 
L 146.467739 -261.627168 
L 147.28141 -261.931883 
L 148.09508 -262.235233 
L 148.908751 -262.537216 
L 149.722422 -262.837834 
L 150.536092 -263.137087 
L 151.349763 -263.434973 
L 152.163433 -263.731494 
L 152.977104 -264.026649 
L 153.790774 -264.320439 
L 154.604445 -264.612863 
L 155.418115 -264.903921 
L 156.231786 -265.193613 
L 157.045456 -265.48194 
L 157.859127 -265.768901 
L 158.672797 -266.054497 
L 159.486468 -266.338727 
L 160.300139 -266.621591 
L 161.113809 -266.903089 
L 161.92748 -267.183222 
L 162.74115 -267.461989 
L 163.554821 -267.73939 
L 164.368491 -268.015426 
L 165.182162 -268.290096 
L 165.995832 -268.5634 
L 166.809503 -268.835339 
L 167.623173 -269.105911 
L 168.436844 -269.375119 
L 169.250514 -269.64296 
L 170.064185 -269.909436 
L 170.877856 -270.174546 
L 171.691526 -270.438291 
L 172.505197 -270.700669 
L 173.318867 -270.961683 
L 174.132538 -271.22133 
L 174.946208 -271.479612 
L 175.759879 -271.736528 
L 176.573549 -271.992078 
L 177.38722 -272.246263 
L 178.20089 -272.499082 
L 179.014561 -272.750535 
L 179.828231 -273.000623 
L 180.641902 -273.249345 
L 181.455573 -273.496701 
L 182.269243 -273.742692 
L 183.082914 -273.987317 
L 183.896584 -274.230576 
L 184.710255 -274.472469 
L 185.523925 -274.712997 
L 186.337596 -274.952159 
L 187.151266 -275.189956 
L 187.964937 -275.426387 
L 188.778607 -275.661452 
L 189.592278 -275.895151 
L 190.405949 -276.127485 
L 191.219619 -276.358453 
L 192.03329 -276.588055 
L 192.84696 -276.816292 
L 193.660631 -277.043163 
L 194.474301 -277.268668 
L 195.287972 -277.492808 
L 196.101642 -277.715582 
L 196.915313 -277.93699 
L 197.728983 -278.157033 
L 198.542654 -278.37571 
L 199.356324 -278.593021 
L 200.169995 -278.808966 
L 200.983666 -279.023546 
L 201.797336 -279.23676 
L 202.611007 -279.448609 
L 203.424677 -279.659092 
L 204.238348 -279.868209 
L 205.052018 -280.07596 
L 205.865689 -280.282346 
L 206.679359 -280.487366 
L 207.49303 -280.69102 
L 208.3067 -280.893309 
L 209.120371 -281.094232 
L 209.934041 -281.293789 
L 210.747712 -281.491981 
L 211.561383 -281.688807 
L 212.375053 -281.884267 
L 213.188724 -282.078362 
L 214.002394 -282.271091 
L 214.816065 -282.462454 
L 215.629735 -282.652451 
L 216.443406 -282.841083 
L 217.257076 -283.028349 
L 218.070747 -283.21425 
L 218.884417 -283.398785 
L 219.698088 -283.581954 
L 220.511758 -283.763757 
L 221.325429 -283.944195 
L 222.1391 -284.123267 
L 222.95277 -284.300973 
L 223.766441 -284.477314 
L 224.580111 -284.652289 
L 225.393782 -284.825898 
L 226.207452 -284.998142 
L 227.021123 -285.16902 
L 227.834793 -285.338532 
L 228.648464 -285.506679 
L 229.462134 -285.67346 
L 230.275805 -285.838875 
L 231.089475 -286.002924 
L 231.903146 -286.165608 
L 232.716817 -286.326926 
L 233.530487 -286.486879 
L 234.344158 -286.645465 
L 235.157828 -286.802687 
L 235.971499 -286.958542 
L 236.785169 -287.113032 
L 237.59884 -287.266156 
L 238.41251 -287.417914 
L 239.226181 -287.568307 
L 240.039851 -287.717334 
L 240.853522 -287.864995 
L 241.667193 -288.011291 
L 242.480863 -288.156221 
L 243.294534 -288.299785 
L 244.108204 -288.441983 
L 244.921875 -288.582816 
L 245.735545 -288.722284 
L 246.549216 -288.860385 
L 247.362886 -288.997121 
L 248.176557 -289.132491 
L 248.990227 -289.266495 
L 249.803898 -289.399134 
L 250.617568 -289.530407 
L 251.431239 -289.660315 
L 252.24491 -289.788856 
L 253.05858 -289.916033 
L 253.872251 -290.041843 
L 254.685921 -290.166288 
L 255.499592 -290.289367 
L 256.313262 -290.41108 
L 257.126933 -290.531427 
L 257.940603 -290.650409 
L 258.754274 -290.768026 
L 259.567944 -290.884276 
L 260.381615 -290.999161 
L 261.195285 -291.11268 
L 262.008956 -291.224834 
L 262.822627 -291.335622 
L 263.636297 -291.445044 
L 264.449968 -291.5531 
L 265.263638 -291.659791 
L 266.077309 -291.765116 
L 266.890979 -291.869075 
L 267.70465 -291.971669 
L 268.51832 -292.072897 
L 269.331991 -292.172759 
L 270.145661 -292.271256 
L 270.959332 -292.368387 
L 271.773002 -292.464152 
L 272.586673 -292.558552 
L 273.400344 -292.651586 
L 274.214014 -292.743254 
L 275.027685 -292.833557 
L 275.841355 -292.922494 
L 276.655026 -293.010065 
L 277.468696 -293.09627 
L 278.282367 -293.18111 
L 279.096037 -293.264584 
L 279.909708 -293.346693 
L 280.723378 -293.427435 
L 281.537049 -293.506813 
L 282.35072 -293.584824 
L 283.16439 -293.66147 
L 283.978061 -293.73675 
L 284.791731 -293.810664 
L 285.605402 -293.883213 
L 286.419072 -293.954396 
L 287.232743 -294.024213 
L 288.046413 -294.092665 
L 288.860084 -294.15975 
L 289.673754 -294.225471 
L 290.487425 -294.289825 
L 291.301095 -294.352814 
L 292.114766 -294.414437 
L 292.928437 -294.474695 
L 293.742107 -294.533587 
L 294.555778 -294.591113 
L 295.369448 -294.647273 
L 296.183119 -294.702068 
L 296.996789 -294.755497 
L 297.81046 -294.80756 
L 298.62413 -294.858258 
L 299.437801 -294.90759 
L 300.251471 -294.955556 
L 301.065142 -295.002157 
L 301.878812 -295.047392 
L 302.692483 -295.091261 
L 303.506154 -295.133765 
L 304.319824 -295.174903 
L 305.133495 -295.214675 
L 305.947165 -295.253082 
L 306.760836 -295.290123 
L 307.574506 -295.325798 
L 308.388177 -295.360107 
L 309.201847 -295.393051 
L 310.015518 -295.424629 
L 310.829188 -295.454842 
L 311.642859 -295.483688 
L 312.456529 -295.511169 
L 313.2702 -295.537285 
L 314.083871 -295.562034 
L 314.897541 -295.585419 
L 315.711212 -295.607437 
L 316.524882 -295.628089 
L 317.338553 -295.647376 
L 318.152223 -295.665298 
L 318.965894 -295.681853 
L 319.779564 -295.697043 
L 320.593235 -295.710867 
L 321.406905 -295.723326 
L 322.220576 -295.734419 
L 323.034247 -295.744146 
L 323.847917 -295.752508 
L 324.661588 -295.759503 
L 325.475258 -295.765133 
L 326.288929 -295.769398 
L 327.102599 -295.772297 
L 327.91627 -295.77383 
L 328.72994 -295.773997 
L 329.543611 -295.772799 
L 330.357281 -295.770235 
L 331.170952 -295.766305 
L 331.984622 -295.76101 
L 332.798293 -295.754349 
L 333.611964 -295.746322 
L 334.425634 -295.73693 
L 335.239305 -295.726171 
L 336.052975 -295.714048 
L 336.866646 -295.700558 
L 337.680316 -295.685703 
L 338.493987 -295.669482 
L 339.307657 -295.651896 
L 340.121328 -295.632944 
L 340.934998 -295.612626 
L 341.748669 -295.590942 
L 342.562339 -295.567893 
L 343.37601 -295.543478 
L 344.189681 -295.517697 
L 345.003351 -295.490551 
L 345.817022 -295.462039 
L 346.630692 -295.432161 
L 347.444363 -295.400918 
L 348.258033 -295.368309 
L 349.071704 -295.334334 
L 349.885374 -295.298994 
L 350.699045 -295.262288 
L 351.512715 -295.224216 
L 352.326386 -295.184778 
L 353.140056 -295.143975 
L 353.953727 -295.101806 
L 354.767398 -295.058272 
L 355.581068 -295.013372 
L 356.394739 -294.967106 
L 357.208409 -294.919474 
L 358.02208 -294.870477 
L 358.83575 -294.820114 
L 359.649421 -294.768385 
L 360.463091 -294.715291 
L 361.276762 -294.660831 
L 362.090432 -294.605005 
L 362.904103 -294.547814 
L 363.717774 -294.489257 
L 364.531444 -294.429334 
L 365.345115 -294.368046 
L 366.158785 -294.305392 
L 366.972456 -294.241372 
L 367.786126 -294.175986 
L 368.599797 -294.109235 
L 369.413467 -294.041118 
L 370.227138 -293.971636 
L 371.040808 -293.900788 
L 371.854479 -293.828574 
L 372.668149 -293.754994 
L 373.48182 -293.680049 
L 374.295491 -293.603738 
L 375.109161 -293.526061 
L 375.922832 -293.447019 
L 376.736502 -293.366611 
L 377.550173 -293.284837 
L 378.363843 -293.201698 
L 379.177514 -293.117193 
L 379.991184 -293.031322 
L 380.804855 -292.944086 
L 381.618525 -292.855484 
L 382.432196 -292.765516 
L 383.245866 -292.674182 
L 383.245866 -329.058522 
L 383.245866 -329.058522 
L 382.432196 -328.730149 
L 381.618525 -328.403141 
L 380.804855 -328.077499 
L 379.991184 -327.753222 
L 379.177514 -327.430311 
L 378.363843 -327.108766 
L 377.550173 -326.788587 
L 376.736502 -326.469773 
L 375.922832 -326.152325 
L 375.109161 -325.836243 
L 374.295491 -325.521526 
L 373.48182 -325.208175 
L 372.668149 -324.896189 
L 371.854479 -324.58557 
L 371.040808 -324.276316 
L 370.227138 -323.968428 
L 369.413467 -323.661905 
L 368.599797 -323.356748 
L 367.786126 -323.052957 
L 366.972456 -322.750531 
L 366.158785 -322.449471 
L 365.345115 -322.149777 
L 364.531444 -321.851449 
L 363.717774 -321.554486 
L 362.904103 -321.258889 
L 362.090432 -320.964657 
L 361.276762 -320.671791 
L 360.463091 -320.380291 
L 359.649421 -320.090157 
L 358.83575 -319.801388 
L 358.02208 -319.513985 
L 357.208409 -319.227948 
L 356.394739 -318.943276 
L 355.581068 -318.65997 
L 354.767398 -318.37803 
L 353.953727 -318.097455 
L 353.140056 -317.818246 
L 352.326386 -317.540403 
L 351.512715 -317.263925 
L 350.699045 -316.988814 
L 349.885374 -316.715067 
L 349.071704 -316.442687 
L 348.258033 -316.171672 
L 347.444363 -315.902023 
L 346.630692 -315.63374 
L 345.817022 -315.366822 
L 345.003351 -315.10127 
L 344.189681 -314.837083 
L 343.37601 -314.574263 
L 342.562339 -314.312808 
L 341.748669 -314.052718 
L 340.934998 -313.793995 
L 340.121328 -313.536637 
L 339.307657 -313.280644 
L 338.493987 -313.026018 
L 337.680316 -312.772757 
L 336.866646 -312.520861 
L 336.052975 -312.270332 
L 335.239305 -312.021168 
L 334.425634 -311.77337 
L 333.611964 -311.526937 
L 332.798293 -311.281871 
L 331.984622 -311.038169 
L 331.170952 -310.795834 
L 330.357281 -310.554864 
L 329.543611 -310.31526 
L 328.72994 -310.077022 
L 327.91627 -309.840149 
L 327.102599 -309.604642 
L 326.288929 -309.370501 
L 325.475258 -309.137725 
L 324.661588 -308.906315 
L 323.847917 -308.676271 
L 323.034247 -308.447592 
L 322.220576 -308.220279 
L 321.406905 -307.994332 
L 320.593235 -307.76975 
L 319.779564 -307.546535 
L 318.965894 -307.324684 
L 318.152223 -307.1042 
L 317.338553 -306.885081 
L 316.524882 -306.667328 
L 315.711212 -306.450941 
L 314.897541 -306.235919 
L 314.083871 -306.022263 
L 313.2702 -305.809972 
L 312.456529 -305.599048 
L 311.642859 -305.389489 
L 310.829188 -305.181295 
L 310.015518 -304.974468 
L 309.201847 -304.769006 
L 308.388177 -304.564909 
L 307.574506 -304.362179 
L 306.760836 -304.160814 
L 305.947165 -303.960815 
L 305.133495 -303.762181 
L 304.319824 -303.564913 
L 303.506154 -303.369011 
L 302.692483 -303.174475 
L 301.878812 -302.981304 
L 301.065142 -302.789499 
L 300.251471 -302.599059 
L 299.437801 -302.409985 
L 298.62413 -302.222277 
L 297.81046 -302.035935 
L 296.996789 -301.850958 
L 296.183119 -301.667347 
L 295.369448 -301.485102 
L 294.555778 -301.304222 
L 293.742107 -301.124708 
L 292.928437 -300.94656 
L 292.114766 -300.769777 
L 291.301095 -300.594361 
L 290.487425 -300.420309 
L 289.673754 -300.247624 
L 288.860084 -300.076304 
L 288.046413 -299.90635 
L 287.232743 -299.737761 
L 286.419072 -299.570539 
L 285.605402 -299.404681 
L 284.791731 -299.24019 
L 283.978061 -299.077064 
L 283.16439 -298.915304 
L 282.35072 -298.75491 
L 281.537049 -298.595881 
L 280.723378 -298.438218 
L 279.909708 -298.281921 
L 279.096037 -298.126989 
L 278.282367 -297.973423 
L 277.468696 -297.821223 
L 276.655026 -297.670388 
L 275.841355 -297.520919 
L 275.027685 -297.372816 
L 274.214014 -297.226079 
L 273.400344 -297.080707 
L 272.586673 -296.936701 
L 271.773002 -296.79406 
L 270.959332 -296.652785 
L 270.145661 -296.512876 
L 269.331991 -296.374333 
L 268.51832 -296.237155 
L 267.70465 -296.101343 
L 266.890979 -295.966897 
L 266.077309 -295.833816 
L 265.263638 -295.702101 
L 264.449968 -295.571752 
L 263.636297 -295.442768 
L 262.822627 -295.31515 
L 262.008956 -295.188898 
L 261.195285 -295.064011 
L 260.381615 -294.94049 
L 259.567944 -294.818335 
L 258.754274 -294.697546 
L 257.940603 -294.578122 
L 257.126933 -294.460064 
L 256.313262 -294.343371 
L 255.499592 -294.228044 
L 254.685921 -294.114083 
L 253.872251 -294.001488 
L 253.05858 -293.890258 
L 252.24491 -293.780394 
L 251.431239 -293.671896 
L 250.617568 -293.564763 
L 249.803898 -293.458996 
L 248.990227 -293.354595 
L 248.176557 -293.251559 
L 247.362886 -293.149889 
L 246.549216 -293.049585 
L 245.735545 -292.950646 
L 244.921875 -292.853073 
L 244.108204 -292.756866 
L 243.294534 -292.662025 
L 242.480863 -292.568549 
L 241.667193 -292.476439 
L 240.853522 -292.385694 
L 240.039851 -292.296315 
L 239.226181 -292.208302 
L 238.41251 -292.121655 
L 237.59884 -292.036373 
L 236.785169 -291.952457 
L 235.971499 -291.869907 
L 235.157828 -291.788722 
L 234.344158 -291.708903 
L 233.530487 -291.63045 
L 232.716817 -291.553362 
L 231.903146 -291.47764 
L 231.089475 -291.403284 
L 230.275805 -291.330293 
L 229.462134 -291.258668 
L 228.648464 -291.188409 
L 227.834793 -291.119516 
L 227.021123 -291.051988 
L 226.207452 -290.985826 
L 225.393782 -290.921029 
L 224.580111 -290.857598 
L 223.766441 -290.795533 
L 222.95277 -290.734834 
L 222.1391 -290.6755 
L 221.325429 -290.617532 
L 220.511758 -290.56093 
L 219.698088 -290.505693 
L 218.884417 -290.451822 
L 218.070747 -290.399317 
L 217.257076 -290.348177 
L 216.443406 -290.298403 
L 215.629735 -290.249995 
L 214.816065 -290.202952 
L 214.002394 -290.157276 
L 213.188724 -290.112964 
L 212.375053 -290.070019 
L 211.561383 -290.028439 
L 210.747712 -289.988225 
L 209.934041 -289.949376 
L 209.120371 -289.911894 
L 208.3067 -289.875777 
L 207.49303 -289.841025 
L 206.679359 -289.807639 
L 205.865689 -289.775619 
L 205.052018 -289.744965 
L 204.238348 -289.715676 
L 203.424677 -289.687753 
L 202.611007 -289.661196 
L 201.797336 -289.636005 
L 200.983666 -289.612179 
L 200.169995 -289.589718 
L 199.356324 -289.568624 
L 198.542654 -289.548895 
L 197.728983 -289.530532 
L 196.915313 -289.513534 
L 196.101642 -289.497902 
L 195.287972 -289.483636 
L 194.474301 -289.470736 
L 193.660631 -289.459201 
L 192.84696 -289.449032 
L 192.03329 -289.440229 
L 191.219619 -289.432791 
L 190.405949 -289.426719 
L 189.592278 -289.422012 
L 188.778607 -289.418672 
L 187.964937 -289.416697 
L 187.151266 -289.416088 
L 186.337596 -289.416844 
L 185.523925 -289.418966 
L 184.710255 -289.422454 
L 183.896584 -289.427307 
L 183.082914 -289.433526 
L 182.269243 -289.441111 
L 181.455573 -289.450062 
L 180.641902 -289.460378 
L 179.828231 -289.47206 
L 179.014561 -289.485107 
L 178.20089 -289.49952 
L 177.38722 -289.515299 
L 176.573549 -289.532444 
L 175.759879 -289.550954 
L 174.946208 -289.57083 
L 174.132538 -289.592072 
L 173.318867 -289.614679 
L 172.505197 -289.638652 
L 171.691526 -289.663991 
L 170.877856 -289.690695 
L 170.064185 -289.718765 
L 169.250514 -289.748201 
L 168.436844 -289.779003 
L 167.623173 -289.81117 
L 166.809503 -289.844703 
L 165.995832 -289.879601 
L 165.182162 -289.915865 
L 164.368491 -289.953495 
L 163.554821 -289.992491 
L 162.74115 -290.032852 
L 161.92748 -290.074579 
L 161.113809 -290.117671 
L 160.300139 -290.16213 
L 159.486468 -290.207954 
L 158.672797 -290.255143 
L 157.859127 -290.303699 
L 157.045456 -290.35362 
L 156.231786 -290.404907 
L 155.418115 -290.457559 
L 154.604445 -290.511577 
L 153.790774 -290.566961 
L 152.977104 -290.62371 
L 152.163433 -290.681825 
L 151.349763 -290.741306 
L 150.536092 -290.802153 
L 149.722422 -290.864365 
L 148.908751 -290.927943 
L 148.09508 -290.992886 
L 147.28141 -291.059196 
L 146.467739 -291.126871 
L 145.654069 -291.195911 
L 144.840398 -291.266317 
L 144.026728 -291.338089 
L 143.213057 -291.411227 
L 142.399387 -291.48573 
L 141.585716 -291.561599 
L 140.772046 -291.638834 
L 139.958375 -291.717435 
L 139.144704 -291.797401 
L 138.331034 -291.878732 
L 137.517363 -291.96143 
L 136.703693 -292.045493 
L 135.890022 -292.130922 
L 135.076352 -292.217716 
L 134.262681 -292.305877 
L 133.449011 -292.395402 
L 132.63534 -292.486294 
L 131.82167 -292.578551 
L 131.007999 -292.672174 
L 130.194329 -292.767163 
L 129.380658 -292.863517 
L 128.566987 -292.961237 
L 127.753317 -293.060323 
L 126.939646 -293.160774 
L 126.125976 -293.262591 
L 125.312305 -293.365774 
L 124.498635 -293.470322 
L 123.684964 -293.576236 
L 122.871294 -293.683516 
L 122.057623 -293.792162 
L 121.243953 -293.902173 
L 120.430282 -294.01355 
L 119.616612 -294.126292 
L 118.802941 -294.2404 
L 117.98927 -294.355874 
L 117.1756 -294.472714 
L 116.361929 -294.590919 
L 115.548259 -294.71049 
L 114.734588 -294.831427 
L 113.920918 -294.953729 
L 113.107247 -295.077397 
L 112.293577 -295.202431 
L 111.479906 -295.32883 
L 110.666236 -295.456595 
L 109.852565 -295.585726 
L 109.038895 -295.716222 
L 108.225224 -295.848084 
L 107.411553 -295.981312 
L 106.597883 -296.115906 
L 105.784212 -296.251865 
L 104.970542 -296.38919 
L 104.156871 -296.52788 
L 103.343201 -296.667936 
L 102.52953 -296.809358 
L 101.71586 -296.952146 
L 100.902189 -297.096299 
L 100.088519 -297.241818 
L 99.274848 -297.388703 
L 98.461177 -297.536953 
L 97.647507 -297.686569 
L 96.833836 -297.837551 
L 96.020166 -297.989898 
L 95.206495 -298.143611 
L 94.392825 -298.29869 
L 93.579154 -298.455134 
L 92.765484 -298.612944 
L 91.951813 -298.77212 
L 91.138143 -298.932662 
L 90.324472 -299.094569 
L 89.510802 -299.257842 
L 88.697131 -299.42248 
L 87.88346 -299.588484 
L 87.06979 -299.755854 
L 86.256119 -299.92459 
L 85.442449 -300.094691 
L 84.628778 -300.266158 
L 83.815108 -300.438991 
L 83.001437 -300.613189 
L 82.187767 -300.788753 
L 81.374096 -300.965683 
L 80.560426 -301.143978 
L 79.746755 -301.323639 
L 78.933085 -301.504666 
L 78.119414 -301.687058 
L 77.305743 -301.870816 
L 76.492073 -302.05594 
L 75.678402 -302.24243 
L 74.864732 -302.430285 
L 74.051061 -302.619506 
L 73.237391 -302.810092 
L 72.42372 -303.002044 
L 71.61005 -303.195362 
L 70.796379 -303.390046 
L 69.982709 -303.586095 
L 69.169038 -303.78351 
L 68.355368 -303.982291 
L 67.541697 -304.182437 
L 66.728026 -304.383949 
L 65.914356 -304.586827 
L 65.100685 -304.79107 
L 64.287015 -304.996679 
L 63.473344 -305.203654 
L 62.659674 -305.411994 
L 61.846003 -305.6217 
L 61.032333 -305.832772 
L 60.218662 -306.04521 
L 59.404992 -306.259013 
L 58.591321 -306.474182 
z
" style="stroke: #ffe4c4; stroke-opacity: 0.5"/>
    </defs>
    <g clip-path="url(#p30ccea457b)">
     <use xlink:href="#mc44f948bc4" x="0" y="415.125025" style="fill: #ffe4c4; fill-opacity: 0.5; stroke: #ffe4c4; stroke-opacity: 0.5"/>
    </g>
   </g>
   <g id="PolyCollection_2">
    <defs>
     <path id="m8a8e7f1add" d="M 58.591321 -153.909025 
L 58.591321 -220.679528 
L 59.404992 -221.131736 
L 60.218662 -221.58258 
L 61.032333 -222.032057 
L 61.846003 -222.480169 
L 62.659674 -222.926915 
L 63.473344 -223.372296 
L 64.287015 -223.816311 
L 65.100685 -224.25896 
L 65.914356 -224.700243 
L 66.728026 -225.140161 
L 67.541697 -225.578713 
L 68.355368 -226.0159 
L 69.169038 -226.45172 
L 69.982709 -226.886175 
L 70.796379 -227.319265 
L 71.61005 -227.750988 
L 72.42372 -228.181346 
L 73.237391 -228.610339 
L 74.051061 -229.037965 
L 74.864732 -229.464226 
L 75.678402 -229.889122 
L 76.492073 -230.312651 
L 77.305743 -230.734815 
L 78.119414 -231.155613 
L 78.933085 -231.575046 
L 79.746755 -231.993113 
L 80.560426 -232.409814 
L 81.374096 -232.825149 
L 82.187767 -233.239119 
L 83.001437 -233.651723 
L 83.815108 -234.062961 
L 84.628778 -234.472834 
L 85.442449 -234.881341 
L 86.256119 -235.288483 
L 87.06979 -235.694258 
L 87.88346 -236.098668 
L 88.697131 -236.501713 
L 89.510802 -236.903391 
L 90.324472 -237.303704 
L 91.138143 -237.702651 
L 91.951813 -238.100233 
L 92.765484 -238.496449 
L 93.579154 -238.891299 
L 94.392825 -239.284783 
L 95.206495 -239.676902 
L 96.020166 -240.067655 
L 96.833836 -240.457043 
L 97.647507 -240.845065 
L 98.461177 -241.231721 
L 99.274848 -241.617011 
L 100.088519 -242.000936 
L 100.902189 -242.383495 
L 101.71586 -242.764688 
L 102.52953 -243.144516 
L 103.343201 -243.522978 
L 104.156871 -243.900074 
L 104.970542 -244.275805 
L 105.784212 -244.65017 
L 106.597883 -245.023169 
L 107.411553 -245.394803 
L 108.225224 -245.76507 
L 109.038895 -246.133973 
L 109.852565 -246.501509 
L 110.666236 -246.86768 
L 111.479906 -247.232485 
L 112.293577 -247.595925 
L 113.107247 -247.957998 
L 113.920918 -248.318706 
L 114.734588 -248.678049 
L 115.548259 -249.036025 
L 116.361929 -249.392637 
L 117.1756 -249.747882 
L 117.98927 -250.101762 
L 118.802941 -250.454275 
L 119.616612 -250.805424 
L 120.430282 -251.155206 
L 121.243953 -251.503623 
L 122.057623 -251.850675 
L 122.871294 -252.19636 
L 123.684964 -252.54068 
L 124.498635 -252.883634 
L 125.312305 -253.225223 
L 126.125976 -253.565445 
L 126.939646 -253.904303 
L 127.753317 -254.241794 
L 128.566987 -254.57792 
L 129.380658 -254.91268 
L 130.194329 -255.246074 
L 131.007999 -255.578103 
L 131.82167 -255.908766 
L 132.63534 -256.238063 
L 133.449011 -256.565995 
L 134.262681 -256.892561 
L 135.076352 -257.217761 
L 135.890022 -257.541596 
L 136.703693 -257.864065 
L 137.517363 -258.185168 
L 138.331034 -258.504906 
L 139.144704 -258.823277 
L 139.958375 -259.140284 
L 140.772046 -259.455924 
L 141.585716 -259.770199 
L 142.399387 -260.083108 
L 143.213057 -260.394651 
L 144.026728 -260.704829 
L 144.840398 -261.013641 
L 145.654069 -261.321088 
L 146.467739 -261.627168 
L 147.28141 -261.931883 
L 148.09508 -262.235233 
L 148.908751 -262.537216 
L 149.722422 -262.837834 
L 150.536092 -263.137087 
L 151.349763 -263.434973 
L 152.163433 -263.731494 
L 152.977104 -264.026649 
L 153.790774 -264.320439 
L 154.604445 -264.612863 
L 155.418115 -264.903921 
L 156.231786 -265.193613 
L 157.045456 -265.48194 
L 157.859127 -265.768901 
L 158.672797 -266.054497 
L 159.486468 -266.338727 
L 160.300139 -266.621591 
L 161.113809 -266.903089 
L 161.92748 -267.183222 
L 162.74115 -267.461989 
L 163.554821 -267.73939 
L 164.368491 -268.015426 
L 165.182162 -268.290096 
L 165.995832 -268.5634 
L 166.809503 -268.835339 
L 167.623173 -269.105911 
L 168.436844 -269.375119 
L 169.250514 -269.64296 
L 170.064185 -269.909436 
L 170.877856 -270.174546 
L 171.691526 -270.438291 
L 172.505197 -270.700669 
L 173.318867 -270.961683 
L 174.132538 -271.22133 
L 174.946208 -271.479612 
L 175.759879 -271.736528 
L 176.573549 -271.992078 
L 177.38722 -272.246263 
L 178.20089 -272.499082 
L 179.014561 -272.750535 
L 179.828231 -273.000623 
L 180.641902 -273.249345 
L 181.455573 -273.496701 
L 182.269243 -273.742692 
L 183.082914 -273.987317 
L 183.896584 -274.230576 
L 184.710255 -274.472469 
L 185.523925 -274.712997 
L 186.337596 -274.952159 
L 187.151266 -275.189956 
L 187.964937 -275.426387 
L 188.778607 -275.661452 
L 189.592278 -275.895151 
L 190.405949 -276.127485 
L 191.219619 -276.358453 
L 192.03329 -276.588055 
L 192.84696 -276.816292 
L 193.660631 -277.043163 
L 194.474301 -277.268668 
L 195.287972 -277.492808 
L 196.101642 -277.715582 
L 196.915313 -277.93699 
L 197.728983 -278.157033 
L 198.542654 -278.37571 
L 199.356324 -278.593021 
L 200.169995 -278.808966 
L 200.983666 -279.023546 
L 201.797336 -279.23676 
L 202.611007 -279.448609 
L 203.424677 -279.659092 
L 204.238348 -279.868209 
L 205.052018 -280.07596 
L 205.865689 -280.282346 
L 206.679359 -280.487366 
L 207.49303 -280.69102 
L 208.3067 -280.893309 
L 209.120371 -281.094232 
L 209.934041 -281.293789 
L 210.747712 -281.491981 
L 211.561383 -281.688807 
L 212.375053 -281.884267 
L 213.188724 -282.078362 
L 214.002394 -282.271091 
L 214.816065 -282.462454 
L 215.629735 -282.652451 
L 216.443406 -282.841083 
L 217.257076 -283.028349 
L 218.070747 -283.21425 
L 218.884417 -283.398785 
L 219.698088 -283.581954 
L 220.511758 -283.763757 
L 221.325429 -283.944195 
L 222.1391 -284.123267 
L 222.95277 -284.300973 
L 223.766441 -284.477314 
L 224.580111 -284.652289 
L 225.393782 -284.825898 
L 226.207452 -284.998142 
L 227.021123 -285.16902 
L 227.834793 -285.338532 
L 228.648464 -285.506679 
L 229.462134 -285.67346 
L 230.275805 -285.838875 
L 231.089475 -286.002924 
L 231.903146 -286.165608 
L 232.716817 -286.326926 
L 233.530487 -286.486879 
L 234.344158 -286.645465 
L 235.157828 -286.802687 
L 235.971499 -286.958542 
L 236.785169 -287.113032 
L 237.59884 -287.266156 
L 238.41251 -287.417914 
L 239.226181 -287.568307 
L 240.039851 -287.717334 
L 240.853522 -287.864995 
L 241.667193 -288.011291 
L 242.480863 -288.156221 
L 243.294534 -288.299785 
L 244.108204 -288.441983 
L 244.921875 -288.582816 
L 245.735545 -288.722284 
L 246.549216 -288.860385 
L 247.362886 -288.997121 
L 248.176557 -289.132491 
L 248.990227 -289.266495 
L 249.803898 -289.399134 
L 250.617568 -289.530407 
L 251.431239 -289.660315 
L 252.24491 -289.788856 
L 253.05858 -289.916033 
L 253.872251 -290.041843 
L 254.685921 -290.166288 
L 255.499592 -290.289367 
L 256.313262 -290.41108 
L 257.126933 -290.531427 
L 257.940603 -290.650409 
L 258.754274 -290.768026 
L 259.567944 -290.884276 
L 260.381615 -290.999161 
L 261.195285 -291.11268 
L 262.008956 -291.224834 
L 262.822627 -291.335622 
L 263.636297 -291.445044 
L 264.449968 -291.5531 
L 265.263638 -291.659791 
L 266.077309 -291.765116 
L 266.890979 -291.869075 
L 267.70465 -291.971669 
L 268.51832 -292.072897 
L 269.331991 -292.172759 
L 270.145661 -292.271256 
L 270.959332 -292.368387 
L 271.773002 -292.464152 
L 272.586673 -292.558552 
L 273.400344 -292.651586 
L 274.214014 -292.743254 
L 275.027685 -292.833557 
L 275.841355 -292.922494 
L 276.655026 -293.010065 
L 277.468696 -293.09627 
L 278.282367 -293.18111 
L 279.096037 -293.264584 
L 279.909708 -293.346693 
L 280.723378 -293.427435 
L 281.537049 -293.506813 
L 282.35072 -293.584824 
L 283.16439 -293.66147 
L 283.978061 -293.73675 
L 284.791731 -293.810664 
L 285.605402 -293.883213 
L 286.419072 -293.954396 
L 287.232743 -294.024213 
L 288.046413 -294.092665 
L 288.860084 -294.15975 
L 289.673754 -294.225471 
L 290.487425 -294.289825 
L 291.301095 -294.352814 
L 292.114766 -294.414437 
L 292.928437 -294.474695 
L 293.742107 -294.533587 
L 294.555778 -294.591113 
L 295.369448 -294.647273 
L 296.183119 -294.702068 
L 296.996789 -294.755497 
L 297.81046 -294.80756 
L 298.62413 -294.858258 
L 299.437801 -294.90759 
L 300.251471 -294.955556 
L 301.065142 -295.002157 
L 301.878812 -295.047392 
L 302.692483 -295.091261 
L 303.506154 -295.133765 
L 304.319824 -295.174903 
L 305.133495 -295.214675 
L 305.947165 -295.253082 
L 306.760836 -295.290123 
L 307.574506 -295.325798 
L 308.388177 -295.360107 
L 309.201847 -295.393051 
L 310.015518 -295.424629 
L 310.829188 -295.454842 
L 311.642859 -295.483688 
L 312.456529 -295.511169 
L 313.2702 -295.537285 
L 314.083871 -295.562034 
L 314.897541 -295.585419 
L 315.711212 -295.607437 
L 316.524882 -295.628089 
L 317.338553 -295.647376 
L 318.152223 -295.665298 
L 318.965894 -295.681853 
L 319.779564 -295.697043 
L 320.593235 -295.710867 
L 321.406905 -295.723326 
L 322.220576 -295.734419 
L 323.034247 -295.744146 
L 323.847917 -295.752508 
L 324.661588 -295.759503 
L 325.475258 -295.765133 
L 326.288929 -295.769398 
L 327.102599 -295.772297 
L 327.91627 -295.77383 
L 328.72994 -295.773997 
L 329.543611 -295.772799 
L 330.357281 -295.770235 
L 331.170952 -295.766305 
L 331.984622 -295.76101 
L 332.798293 -295.754349 
L 333.611964 -295.746322 
L 334.425634 -295.73693 
L 335.239305 -295.726171 
L 336.052975 -295.714048 
L 336.866646 -295.700558 
L 337.680316 -295.685703 
L 338.493987 -295.669482 
L 339.307657 -295.651896 
L 340.121328 -295.632944 
L 340.934998 -295.612626 
L 341.748669 -295.590942 
L 342.562339 -295.567893 
L 343.37601 -295.543478 
L 344.189681 -295.517697 
L 345.003351 -295.490551 
L 345.817022 -295.462039 
L 346.630692 -295.432161 
L 347.444363 -295.400918 
L 348.258033 -295.368309 
L 349.071704 -295.334334 
L 349.885374 -295.298994 
L 350.699045 -295.262288 
L 351.512715 -295.224216 
L 352.326386 -295.184778 
L 353.140056 -295.143975 
L 353.953727 -295.101806 
L 354.767398 -295.058272 
L 355.581068 -295.013372 
L 356.394739 -294.967106 
L 357.208409 -294.919474 
L 358.02208 -294.870477 
L 358.83575 -294.820114 
L 359.649421 -294.768385 
L 360.463091 -294.715291 
L 361.276762 -294.660831 
L 362.090432 -294.605005 
L 362.904103 -294.547814 
L 363.717774 -294.489257 
L 364.531444 -294.429334 
L 365.345115 -294.368046 
L 366.158785 -294.305392 
L 366.972456 -294.241372 
L 367.786126 -294.175986 
L 368.599797 -294.109235 
L 369.413467 -294.041118 
L 370.227138 -293.971636 
L 371.040808 -293.900788 
L 371.854479 -293.828574 
L 372.668149 -293.754994 
L 373.48182 -293.680049 
L 374.295491 -293.603738 
L 375.109161 -293.526061 
L 375.922832 -293.447019 
L 376.736502 -293.366611 
L 377.550173 -293.284837 
L 378.363843 -293.201698 
L 379.177514 -293.117193 
L 379.991184 -293.031322 
L 380.804855 -292.944086 
L 381.618525 -292.855484 
L 382.432196 -292.765516 
L 383.245866 -292.674182 
L 383.245866 -225.90368 
L 383.245866 -225.90368 
L 382.432196 -225.995013 
L 381.618525 -226.084981 
L 380.804855 -226.173583 
L 379.991184 -226.26082 
L 379.177514 -226.34669 
L 378.363843 -226.431195 
L 377.550173 -226.514335 
L 376.736502 -226.596108 
L 375.922832 -226.676516 
L 375.109161 -226.755559 
L 374.295491 -226.833235 
L 373.48182 -226.909546 
L 372.668149 -226.984492 
L 371.854479 -227.058071 
L 371.040808 -227.130285 
L 370.227138 -227.201133 
L 369.413467 -227.270616 
L 368.599797 -227.338733 
L 367.786126 -227.405484 
L 366.972456 -227.470869 
L 366.158785 -227.534889 
L 365.345115 -227.597543 
L 364.531444 -227.658832 
L 363.717774 -227.718754 
L 362.904103 -227.777311 
L 362.090432 -227.834503 
L 361.276762 -227.890328 
L 360.463091 -227.944788 
L 359.649421 -227.997883 
L 358.83575 -228.049611 
L 358.02208 -228.099974 
L 357.208409 -228.148972 
L 356.394739 -228.196603 
L 355.581068 -228.242869 
L 354.767398 -228.287769 
L 353.953727 -228.331304 
L 353.140056 -228.373473 
L 352.326386 -228.414276 
L 351.512715 -228.453713 
L 350.699045 -228.491785 
L 349.885374 -228.528491 
L 349.071704 -228.563832 
L 348.258033 -228.597806 
L 347.444363 -228.630415 
L 346.630692 -228.661659 
L 345.817022 -228.691536 
L 345.003351 -228.720048 
L 344.189681 -228.747195 
L 343.37601 -228.772975 
L 342.562339 -228.79739 
L 341.748669 -228.82044 
L 340.934998 -228.842123 
L 340.121328 -228.862441 
L 339.307657 -228.881393 
L 338.493987 -228.89898 
L 337.680316 -228.915201 
L 336.866646 -228.930056 
L 336.052975 -228.943545 
L 335.239305 -228.955669 
L 334.425634 -228.966427 
L 333.611964 -228.975819 
L 332.798293 -228.983846 
L 331.984622 -228.990507 
L 331.170952 -228.995803 
L 330.357281 -228.999732 
L 329.543611 -229.002296 
L 328.72994 -229.003495 
L 327.91627 -229.003327 
L 327.102599 -229.001794 
L 326.288929 -228.998895 
L 325.475258 -228.994631 
L 324.661588 -228.989001 
L 323.847917 -228.982005 
L 323.034247 -228.973643 
L 322.220576 -228.963916 
L 321.406905 -228.952823 
L 320.593235 -228.940365 
L 319.779564 -228.926541 
L 318.965894 -228.911351 
L 318.152223 -228.894795 
L 317.338553 -228.876874 
L 316.524882 -228.857587 
L 315.711212 -228.836934 
L 314.897541 -228.814916 
L 314.083871 -228.791532 
L 313.2702 -228.766782 
L 312.456529 -228.740667 
L 311.642859 -228.713186 
L 310.829188 -228.684339 
L 310.015518 -228.654127 
L 309.201847 -228.622548 
L 308.388177 -228.589605 
L 307.574506 -228.555295 
L 306.760836 -228.51962 
L 305.947165 -228.482579 
L 305.133495 -228.444173 
L 304.319824 -228.4044 
L 303.506154 -228.363262 
L 302.692483 -228.320759 
L 301.878812 -228.27689 
L 301.065142 -228.231655 
L 300.251471 -228.185054 
L 299.437801 -228.137088 
L 298.62413 -228.087756 
L 297.81046 -228.037058 
L 296.996789 -227.984995 
L 296.183119 -227.931565 
L 295.369448 -227.876771 
L 294.555778 -227.82061 
L 293.742107 -227.763084 
L 292.928437 -227.704192 
L 292.114766 -227.643935 
L 291.301095 -227.582312 
L 290.487425 -227.519323 
L 289.673754 -227.454968 
L 288.860084 -227.389248 
L 288.046413 -227.322162 
L 287.232743 -227.25371 
L 286.419072 -227.183893 
L 285.605402 -227.11271 
L 284.791731 -227.040162 
L 283.978061 -226.966247 
L 283.16439 -226.890967 
L 282.35072 -226.814321 
L 281.537049 -226.73631 
L 280.723378 -226.656933 
L 279.909708 -226.57619 
L 279.096037 -226.494082 
L 278.282367 -226.410608 
L 277.468696 -226.325768 
L 276.655026 -226.239562 
L 275.841355 -226.151991 
L 275.027685 -226.063054 
L 274.214014 -225.972752 
L 273.400344 -225.881083 
L 272.586673 -225.78805 
L 271.773002 -225.69365 
L 270.959332 -225.597885 
L 270.145661 -225.500754 
L 269.331991 -225.402257 
L 268.51832 -225.302395 
L 267.70465 -225.201167 
L 266.890979 -225.098573 
L 266.077309 -224.994613 
L 265.263638 -224.889288 
L 264.449968 -224.782598 
L 263.636297 -224.674541 
L 262.822627 -224.565119 
L 262.008956 -224.454331 
L 261.195285 -224.342178 
L 260.381615 -224.228658 
L 259.567944 -224.113774 
L 258.754274 -223.997523 
L 257.940603 -223.879907 
L 257.126933 -223.760925 
L 256.313262 -223.640577 
L 255.499592 -223.518864 
L 254.685921 -223.395785 
L 253.872251 -223.27134 
L 253.05858 -223.14553 
L 252.24491 -223.018354 
L 251.431239 -222.889812 
L 250.617568 -222.759905 
L 249.803898 -222.628632 
L 248.990227 -222.495993 
L 248.176557 -222.361988 
L 247.362886 -222.226618 
L 246.549216 -222.089883 
L 245.735545 -221.951781 
L 244.921875 -221.812314 
L 244.108204 -221.671481 
L 243.294534 -221.529282 
L 242.480863 -221.385718 
L 241.667193 -221.240788 
L 240.853522 -221.094493 
L 240.039851 -220.946831 
L 239.226181 -220.797804 
L 238.41251 -220.647412 
L 237.59884 -220.495653 
L 236.785169 -220.342529 
L 235.971499 -220.188039 
L 235.157828 -220.032184 
L 234.344158 -219.874963 
L 233.530487 -219.716376 
L 232.716817 -219.556424 
L 231.903146 -219.395106 
L 231.089475 -219.232422 
L 230.275805 -219.068372 
L 229.462134 -218.902957 
L 228.648464 -218.736176 
L 227.834793 -218.56803 
L 227.021123 -218.398517 
L 226.207452 -218.227639 
L 225.393782 -218.055396 
L 224.580111 -217.881786 
L 223.766441 -217.706811 
L 222.95277 -217.530471 
L 222.1391 -217.352764 
L 221.325429 -217.173692 
L 220.511758 -216.993255 
L 219.698088 -216.811451 
L 218.884417 -216.628282 
L 218.070747 -216.443747 
L 217.257076 -216.257847 
L 216.443406 -216.070581 
L 215.629735 -215.881949 
L 214.816065 -215.691951 
L 214.002394 -215.500588 
L 213.188724 -215.307859 
L 212.375053 -215.113765 
L 211.561383 -214.918304 
L 210.747712 -214.721478 
L 209.934041 -214.523287 
L 209.120371 -214.32373 
L 208.3067 -214.122807 
L 207.49303 -213.920518 
L 206.679359 -213.716863 
L 205.865689 -213.511843 
L 205.052018 -213.305458 
L 204.238348 -213.097706 
L 203.424677 -212.888589 
L 202.611007 -212.678106 
L 201.797336 -212.466258 
L 200.983666 -212.253044 
L 200.169995 -212.038464 
L 199.356324 -211.822518 
L 198.542654 -211.605207 
L 197.728983 -211.38653 
L 196.915313 -211.166488 
L 196.101642 -210.945079 
L 195.287972 -210.722305 
L 194.474301 -210.498166 
L 193.660631 -210.27266 
L 192.84696 -210.045789 
L 192.03329 -209.817553 
L 191.219619 -209.58795 
L 190.405949 -209.356982 
L 189.592278 -209.124649 
L 188.778607 -208.890949 
L 187.964937 -208.655884 
L 187.151266 -208.419453 
L 186.337596 -208.181657 
L 185.523925 -207.942495 
L 184.710255 -207.701967 
L 183.896584 -207.460073 
L 183.082914 -207.216814 
L 182.269243 -206.972189 
L 181.455573 -206.726199 
L 180.641902 -206.478842 
L 179.828231 -206.23012 
L 179.014561 -205.980033 
L 178.20089 -205.728579 
L 177.38722 -205.47576 
L 176.573549 -205.221576 
L 175.759879 -204.966025 
L 174.946208 -204.709109 
L 174.132538 -204.450827 
L 173.318867 -204.19118 
L 172.505197 -203.930167 
L 171.691526 -203.667788 
L 170.877856 -203.404044 
L 170.064185 -203.138933 
L 169.250514 -202.872458 
L 168.436844 -202.604616 
L 167.623173 -202.335409 
L 166.809503 -202.064836 
L 165.995832 -201.792897 
L 165.182162 -201.519593 
L 164.368491 -201.244923 
L 163.554821 -200.968888 
L 162.74115 -200.691486 
L 161.92748 -200.412719 
L 161.113809 -200.132586 
L 160.300139 -199.851088 
L 159.486468 -199.568224 
L 158.672797 -199.283994 
L 157.859127 -198.998399 
L 157.045456 -198.711438 
L 156.231786 -198.423111 
L 155.418115 -198.133418 
L 154.604445 -197.84236 
L 153.790774 -197.549936 
L 152.977104 -197.256147 
L 152.163433 -196.960992 
L 151.349763 -196.664471 
L 150.536092 -196.366584 
L 149.722422 -196.067332 
L 148.908751 -195.766714 
L 148.09508 -195.46473 
L 147.28141 -195.161381 
L 146.467739 -194.856666 
L 145.654069 -194.550585 
L 144.840398 -194.243139 
L 144.026728 -193.934327 
L 143.213057 -193.624149 
L 142.399387 -193.312605 
L 141.585716 -192.999696 
L 140.772046 -192.685422 
L 139.958375 -192.369781 
L 139.144704 -192.052775 
L 138.331034 -191.734403 
L 137.517363 -191.414665 
L 136.703693 -191.093562 
L 135.890022 -190.771093 
L 135.076352 -190.447259 
L 134.262681 -190.122058 
L 133.449011 -189.795492 
L 132.63534 -189.467561 
L 131.82167 -189.138263 
L 131.007999 -188.8076 
L 130.194329 -188.475572 
L 129.380658 -188.142177 
L 128.566987 -187.807417 
L 127.753317 -187.471292 
L 126.939646 -187.1338 
L 126.125976 -186.794943 
L 125.312305 -186.45472 
L 124.498635 -186.113132 
L 123.684964 -185.770177 
L 122.871294 -185.425858 
L 122.057623 -185.080172 
L 121.243953 -184.733121 
L 120.430282 -184.384704 
L 119.616612 -184.034921 
L 118.802941 -183.683773 
L 117.98927 -183.331259 
L 117.1756 -182.977379 
L 116.361929 -182.622134 
L 115.548259 -182.265523 
L 114.734588 -181.907546 
L 113.920918 -181.548204 
L 113.107247 -181.187496 
L 112.293577 -180.825422 
L 111.479906 -180.461983 
L 110.666236 -180.097177 
L 109.852565 -179.731007 
L 109.038895 -179.36347 
L 108.225224 -178.994568 
L 107.411553 -178.6243 
L 106.597883 -178.252666 
L 105.784212 -177.879667 
L 104.970542 -177.505302 
L 104.156871 -177.129572 
L 103.343201 -176.752475 
L 102.52953 -176.374013 
L 101.71586 -175.994186 
L 100.902189 -175.612992 
L 100.088519 -175.230433 
L 99.274848 -174.846509 
L 98.461177 -174.461218 
L 97.647507 -174.074562 
L 96.833836 -173.68654 
L 96.020166 -173.297153 
L 95.206495 -172.9064 
L 94.392825 -172.514281 
L 93.579154 -172.120796 
L 92.765484 -171.725946 
L 91.951813 -171.32973 
L 91.138143 -170.932149 
L 90.324472 -170.533202 
L 89.510802 -170.132889 
L 88.697131 -169.73121 
L 87.88346 -169.328166 
L 87.06979 -168.923756 
L 86.256119 -168.51798 
L 85.442449 -168.110839 
L 84.628778 -167.702332 
L 83.815108 -167.292459 
L 83.001437 -166.881221 
L 82.187767 -166.468616 
L 81.374096 -166.054647 
L 80.560426 -165.639311 
L 79.746755 -165.22261 
L 78.933085 -164.804543 
L 78.119414 -164.385111 
L 77.305743 -163.964312 
L 76.492073 -163.542149 
L 75.678402 -163.118619 
L 74.864732 -162.693724 
L 74.051061 -162.267463 
L 73.237391 -161.839836 
L 72.42372 -161.410844 
L 71.61005 -160.980486 
L 70.796379 -160.548762 
L 69.982709 -160.115673 
L 69.169038 -159.681218 
L 68.355368 -159.245397 
L 67.541697 -158.808211 
L 66.728026 -158.369659 
L 65.914356 -157.929741 
L 65.100685 -157.488457 
L 64.287015 -157.045808 
L 63.473344 -156.601793 
L 62.659674 -156.156413 
L 61.846003 -155.709667 
L 61.032333 -155.261555 
L 60.218662 -154.812077 
L 59.404992 -154.361234 
L 58.591321 -153.909025 
z
" style="stroke: #d8bfd8; stroke-opacity: 0.25"/>
    </defs>
    <g clip-path="url(#p30ccea457b)">
     <use xlink:href="#m8a8e7f1add" x="0" y="415.125025" style="fill: #d8bfd8; fill-opacity: 0.25; stroke: #d8bfd8; stroke-opacity: 0.25"/>
    </g>
   </g>
   <g id="PolyCollection_3">
    <defs>
     <path id="m2cdd4189cf" d="M 58.591321 -373.244684 
L 58.591321 -306.474182 
L 59.404992 -306.259013 
L 60.218662 -306.04521 
L 61.032333 -305.832772 
L 61.846003 -305.6217 
L 62.659674 -305.411994 
L 63.473344 -305.203654 
L 64.287015 -304.996679 
L 65.100685 -304.79107 
L 65.914356 -304.586827 
L 66.728026 -304.383949 
L 67.541697 -304.182437 
L 68.355368 -303.982291 
L 69.169038 -303.78351 
L 69.982709 -303.586095 
L 70.796379 -303.390046 
L 71.61005 -303.195362 
L 72.42372 -303.002044 
L 73.237391 -302.810092 
L 74.051061 -302.619506 
L 74.864732 -302.430285 
L 75.678402 -302.24243 
L 76.492073 -302.05594 
L 77.305743 -301.870816 
L 78.119414 -301.687058 
L 78.933085 -301.504666 
L 79.746755 -301.323639 
L 80.560426 -301.143978 
L 81.374096 -300.965683 
L 82.187767 -300.788753 
L 83.001437 -300.613189 
L 83.815108 -300.438991 
L 84.628778 -300.266158 
L 85.442449 -300.094691 
L 86.256119 -299.92459 
L 87.06979 -299.755854 
L 87.88346 -299.588484 
L 88.697131 -299.42248 
L 89.510802 -299.257842 
L 90.324472 -299.094569 
L 91.138143 -298.932662 
L 91.951813 -298.77212 
L 92.765484 -298.612944 
L 93.579154 -298.455134 
L 94.392825 -298.29869 
L 95.206495 -298.143611 
L 96.020166 -297.989898 
L 96.833836 -297.837551 
L 97.647507 -297.686569 
L 98.461177 -297.536953 
L 99.274848 -297.388703 
L 100.088519 -297.241818 
L 100.902189 -297.096299 
L 101.71586 -296.952146 
L 102.52953 -296.809358 
L 103.343201 -296.667936 
L 104.156871 -296.52788 
L 104.970542 -296.38919 
L 105.784212 -296.251865 
L 106.597883 -296.115906 
L 107.411553 -295.981312 
L 108.225224 -295.848084 
L 109.038895 -295.716222 
L 109.852565 -295.585726 
L 110.666236 -295.456595 
L 111.479906 -295.32883 
L 112.293577 -295.202431 
L 113.107247 -295.077397 
L 113.920918 -294.953729 
L 114.734588 -294.831427 
L 115.548259 -294.71049 
L 116.361929 -294.590919 
L 117.1756 -294.472714 
L 117.98927 -294.355874 
L 118.802941 -294.2404 
L 119.616612 -294.126292 
L 120.430282 -294.01355 
L 121.243953 -293.902173 
L 122.057623 -293.792162 
L 122.871294 -293.683516 
L 123.684964 -293.576236 
L 124.498635 -293.470322 
L 125.312305 -293.365774 
L 126.125976 -293.262591 
L 126.939646 -293.160774 
L 127.753317 -293.060323 
L 128.566987 -292.961237 
L 129.380658 -292.863517 
L 130.194329 -292.767163 
L 131.007999 -292.672174 
L 131.82167 -292.578551 
L 132.63534 -292.486294 
L 133.449011 -292.395402 
L 134.262681 -292.305877 
L 135.076352 -292.217716 
L 135.890022 -292.130922 
L 136.703693 -292.045493 
L 137.517363 -291.96143 
L 138.331034 -291.878732 
L 139.144704 -291.797401 
L 139.958375 -291.717435 
L 140.772046 -291.638834 
L 141.585716 -291.561599 
L 142.399387 -291.48573 
L 143.213057 -291.411227 
L 144.026728 -291.338089 
L 144.840398 -291.266317 
L 145.654069 -291.195911 
L 146.467739 -291.126871 
L 147.28141 -291.059196 
L 148.09508 -290.992886 
L 148.908751 -290.927943 
L 149.722422 -290.864365 
L 150.536092 -290.802153 
L 151.349763 -290.741306 
L 152.163433 -290.681825 
L 152.977104 -290.62371 
L 153.790774 -290.566961 
L 154.604445 -290.511577 
L 155.418115 -290.457559 
L 156.231786 -290.404907 
L 157.045456 -290.35362 
L 157.859127 -290.303699 
L 158.672797 -290.255143 
L 159.486468 -290.207954 
L 160.300139 -290.16213 
L 161.113809 -290.117671 
L 161.92748 -290.074579 
L 162.74115 -290.032852 
L 163.554821 -289.992491 
L 164.368491 -289.953495 
L 165.182162 -289.915865 
L 165.995832 -289.879601 
L 166.809503 -289.844703 
L 167.623173 -289.81117 
L 168.436844 -289.779003 
L 169.250514 -289.748201 
L 170.064185 -289.718765 
L 170.877856 -289.690695 
L 171.691526 -289.663991 
L 172.505197 -289.638652 
L 173.318867 -289.614679 
L 174.132538 -289.592072 
L 174.946208 -289.57083 
L 175.759879 -289.550954 
L 176.573549 -289.532444 
L 177.38722 -289.515299 
L 178.20089 -289.49952 
L 179.014561 -289.485107 
L 179.828231 -289.47206 
L 180.641902 -289.460378 
L 181.455573 -289.450062 
L 182.269243 -289.441111 
L 183.082914 -289.433526 
L 183.896584 -289.427307 
L 184.710255 -289.422454 
L 185.523925 -289.418966 
L 186.337596 -289.416844 
L 187.151266 -289.416088 
L 187.964937 -289.416697 
L 188.778607 -289.418672 
L 189.592278 -289.422012 
L 190.405949 -289.426719 
L 191.219619 -289.432791 
L 192.03329 -289.440229 
L 192.84696 -289.449032 
L 193.660631 -289.459201 
L 194.474301 -289.470736 
L 195.287972 -289.483636 
L 196.101642 -289.497902 
L 196.915313 -289.513534 
L 197.728983 -289.530532 
L 198.542654 -289.548895 
L 199.356324 -289.568624 
L 200.169995 -289.589718 
L 200.983666 -289.612179 
L 201.797336 -289.636005 
L 202.611007 -289.661196 
L 203.424677 -289.687753 
L 204.238348 -289.715676 
L 205.052018 -289.744965 
L 205.865689 -289.775619 
L 206.679359 -289.807639 
L 207.49303 -289.841025 
L 208.3067 -289.875777 
L 209.120371 -289.911894 
L 209.934041 -289.949376 
L 210.747712 -289.988225 
L 211.561383 -290.028439 
L 212.375053 -290.070019 
L 213.188724 -290.112964 
L 214.002394 -290.157276 
L 214.816065 -290.202952 
L 215.629735 -290.249995 
L 216.443406 -290.298403 
L 217.257076 -290.348177 
L 218.070747 -290.399317 
L 218.884417 -290.451822 
L 219.698088 -290.505693 
L 220.511758 -290.56093 
L 221.325429 -290.617532 
L 222.1391 -290.6755 
L 222.95277 -290.734834 
L 223.766441 -290.795533 
L 224.580111 -290.857598 
L 225.393782 -290.921029 
L 226.207452 -290.985826 
L 227.021123 -291.051988 
L 227.834793 -291.119516 
L 228.648464 -291.188409 
L 229.462134 -291.258668 
L 230.275805 -291.330293 
L 231.089475 -291.403284 
L 231.903146 -291.47764 
L 232.716817 -291.553362 
L 233.530487 -291.63045 
L 234.344158 -291.708903 
L 235.157828 -291.788722 
L 235.971499 -291.869907 
L 236.785169 -291.952457 
L 237.59884 -292.036373 
L 238.41251 -292.121655 
L 239.226181 -292.208302 
L 240.039851 -292.296315 
L 240.853522 -292.385694 
L 241.667193 -292.476439 
L 242.480863 -292.568549 
L 243.294534 -292.662025 
L 244.108204 -292.756866 
L 244.921875 -292.853073 
L 245.735545 -292.950646 
L 246.549216 -293.049585 
L 247.362886 -293.149889 
L 248.176557 -293.251559 
L 248.990227 -293.354595 
L 249.803898 -293.458996 
L 250.617568 -293.564763 
L 251.431239 -293.671896 
L 252.24491 -293.780394 
L 253.05858 -293.890258 
L 253.872251 -294.001488 
L 254.685921 -294.114083 
L 255.499592 -294.228044 
L 256.313262 -294.343371 
L 257.126933 -294.460064 
L 257.940603 -294.578122 
L 258.754274 -294.697546 
L 259.567944 -294.818335 
L 260.381615 -294.94049 
L 261.195285 -295.064011 
L 262.008956 -295.188898 
L 262.822627 -295.31515 
L 263.636297 -295.442768 
L 264.449968 -295.571752 
L 265.263638 -295.702101 
L 266.077309 -295.833816 
L 266.890979 -295.966897 
L 267.70465 -296.101343 
L 268.51832 -296.237155 
L 269.331991 -296.374333 
L 270.145661 -296.512876 
L 270.959332 -296.652785 
L 271.773002 -296.79406 
L 272.586673 -296.936701 
L 273.400344 -297.080707 
L 274.214014 -297.226079 
L 275.027685 -297.372816 
L 275.841355 -297.520919 
L 276.655026 -297.670388 
L 277.468696 -297.821223 
L 278.282367 -297.973423 
L 279.096037 -298.126989 
L 279.909708 -298.281921 
L 280.723378 -298.438218 
L 281.537049 -298.595881 
L 282.35072 -298.75491 
L 283.16439 -298.915304 
L 283.978061 -299.077064 
L 284.791731 -299.24019 
L 285.605402 -299.404681 
L 286.419072 -299.570539 
L 287.232743 -299.737761 
L 288.046413 -299.90635 
L 288.860084 -300.076304 
L 289.673754 -300.247624 
L 290.487425 -300.420309 
L 291.301095 -300.594361 
L 292.114766 -300.769777 
L 292.928437 -300.94656 
L 293.742107 -301.124708 
L 294.555778 -301.304222 
L 295.369448 -301.485102 
L 296.183119 -301.667347 
L 296.996789 -301.850958 
L 297.81046 -302.035935 
L 298.62413 -302.222277 
L 299.437801 -302.409985 
L 300.251471 -302.599059 
L 301.065142 -302.789499 
L 301.878812 -302.981304 
L 302.692483 -303.174475 
L 303.506154 -303.369011 
L 304.319824 -303.564913 
L 305.133495 -303.762181 
L 305.947165 -303.960815 
L 306.760836 -304.160814 
L 307.574506 -304.362179 
L 308.388177 -304.564909 
L 309.201847 -304.769006 
L 310.015518 -304.974468 
L 310.829188 -305.181295 
L 311.642859 -305.389489 
L 312.456529 -305.599048 
L 313.2702 -305.809972 
L 314.083871 -306.022263 
L 314.897541 -306.235919 
L 315.711212 -306.450941 
L 316.524882 -306.667328 
L 317.338553 -306.885081 
L 318.152223 -307.1042 
L 318.965894 -307.324684 
L 319.779564 -307.546535 
L 320.593235 -307.76975 
L 321.406905 -307.994332 
L 322.220576 -308.220279 
L 323.034247 -308.447592 
L 323.847917 -308.676271 
L 324.661588 -308.906315 
L 325.475258 -309.137725 
L 326.288929 -309.370501 
L 327.102599 -309.604642 
L 327.91627 -309.840149 
L 328.72994 -310.077022 
L 329.543611 -310.31526 
L 330.357281 -310.554864 
L 331.170952 -310.795834 
L 331.984622 -311.038169 
L 332.798293 -311.281871 
L 333.611964 -311.526937 
L 334.425634 -311.77337 
L 335.239305 -312.021168 
L 336.052975 -312.270332 
L 336.866646 -312.520861 
L 337.680316 -312.772757 
L 338.493987 -313.026018 
L 339.307657 -313.280644 
L 340.121328 -313.536637 
L 340.934998 -313.793995 
L 341.748669 -314.052718 
L 342.562339 -314.312808 
L 343.37601 -314.574263 
L 344.189681 -314.837083 
L 345.003351 -315.10127 
L 345.817022 -315.366822 
L 346.630692 -315.63374 
L 347.444363 -315.902023 
L 348.258033 -316.171672 
L 349.071704 -316.442687 
L 349.885374 -316.715067 
L 350.699045 -316.988814 
L 351.512715 -317.263925 
L 352.326386 -317.540403 
L 353.140056 -317.818246 
L 353.953727 -318.097455 
L 354.767398 -318.37803 
L 355.581068 -318.65997 
L 356.394739 -318.943276 
L 357.208409 -319.227948 
L 358.02208 -319.513985 
L 358.83575 -319.801388 
L 359.649421 -320.090157 
L 360.463091 -320.380291 
L 361.276762 -320.671791 
L 362.090432 -320.964657 
L 362.904103 -321.258889 
L 363.717774 -321.554486 
L 364.531444 -321.851449 
L 365.345115 -322.149777 
L 366.158785 -322.449471 
L 366.972456 -322.750531 
L 367.786126 -323.052957 
L 368.599797 -323.356748 
L 369.413467 -323.661905 
L 370.227138 -323.968428 
L 371.040808 -324.276316 
L 371.854479 -324.58557 
L 372.668149 -324.896189 
L 373.48182 -325.208175 
L 374.295491 -325.521526 
L 375.109161 -325.836243 
L 375.922832 -326.152325 
L 376.736502 -326.469773 
L 377.550173 -326.788587 
L 378.363843 -327.108766 
L 379.177514 -327.430311 
L 379.991184 -327.753222 
L 380.804855 -328.077499 
L 381.618525 -328.403141 
L 382.432196 -328.730149 
L 383.245866 -329.058522 
L 383.245866 -395.829025 
L 383.245866 -395.829025 
L 382.432196 -395.500651 
L 381.618525 -395.173644 
L 380.804855 -394.848001 
L 379.991184 -394.523725 
L 379.177514 -394.200814 
L 378.363843 -393.879269 
L 377.550173 -393.559089 
L 376.736502 -393.240276 
L 375.922832 -392.922828 
L 375.109161 -392.606745 
L 374.295491 -392.292028 
L 373.48182 -391.978677 
L 372.668149 -391.666692 
L 371.854479 -391.356072 
L 371.040808 -391.046818 
L 370.227138 -390.73893 
L 369.413467 -390.432407 
L 368.599797 -390.12725 
L 367.786126 -389.823459 
L 366.972456 -389.521034 
L 366.158785 -389.219974 
L 365.345115 -388.92028 
L 364.531444 -388.621951 
L 363.717774 -388.324988 
L 362.904103 -388.029391 
L 362.090432 -387.73516 
L 361.276762 -387.442294 
L 360.463091 -387.150794 
L 359.649421 -386.860659 
L 358.83575 -386.571891 
L 358.02208 -386.284488 
L 357.208409 -385.99845 
L 356.394739 -385.713779 
L 355.581068 -385.430473 
L 354.767398 -385.148532 
L 353.953727 -384.867958 
L 353.140056 -384.588749 
L 352.326386 -384.310906 
L 351.512715 -384.034428 
L 350.699045 -383.759316 
L 349.885374 -383.48557 
L 349.071704 -383.213189 
L 348.258033 -382.942175 
L 347.444363 -382.672525 
L 346.630692 -382.404242 
L 345.817022 -382.137324 
L 345.003351 -381.871772 
L 344.189681 -381.607586 
L 343.37601 -381.344765 
L 342.562339 -381.08331 
L 341.748669 -380.823221 
L 340.934998 -380.564497 
L 340.121328 -380.307139 
L 339.307657 -380.051147 
L 338.493987 -379.79652 
L 337.680316 -379.543259 
L 336.866646 -379.291364 
L 336.052975 -379.040834 
L 335.239305 -378.791671 
L 334.425634 -378.543872 
L 333.611964 -378.29744 
L 332.798293 -378.052373 
L 331.984622 -377.808672 
L 331.170952 -377.566337 
L 330.357281 -377.325367 
L 329.543611 -377.085763 
L 328.72994 -376.847524 
L 327.91627 -376.610652 
L 327.102599 -376.375145 
L 326.288929 -376.141003 
L 325.475258 -375.908228 
L 324.661588 -375.676818 
L 323.847917 -375.446773 
L 323.034247 -375.218095 
L 322.220576 -374.990782 
L 321.406905 -374.764835 
L 320.593235 -374.540253 
L 319.779564 -374.317037 
L 318.965894 -374.095187 
L 318.152223 -373.874702 
L 317.338553 -373.655584 
L 316.524882 -373.437831 
L 315.711212 -373.221443 
L 314.897541 -373.006421 
L 314.083871 -372.792765 
L 313.2702 -372.580475 
L 312.456529 -372.36955 
L 311.642859 -372.159991 
L 310.829188 -371.951798 
L 310.015518 -371.74497 
L 309.201847 -371.539508 
L 308.388177 -371.335412 
L 307.574506 -371.132681 
L 306.760836 -370.931316 
L 305.947165 -370.731317 
L 305.133495 -370.532684 
L 304.319824 -370.335416 
L 303.506154 -370.139514 
L 302.692483 -369.944977 
L 301.878812 -369.751806 
L 301.065142 -369.560001 
L 300.251471 -369.369562 
L 299.437801 -369.180488 
L 298.62413 -368.99278 
L 297.81046 -368.806438 
L 296.996789 -368.621461 
L 296.183119 -368.43785 
L 295.369448 -368.255604 
L 294.555778 -368.074725 
L 293.742107 -367.895211 
L 292.928437 -367.717063 
L 292.114766 -367.54028 
L 291.301095 -367.364863 
L 290.487425 -367.190812 
L 289.673754 -367.018126 
L 288.860084 -366.846806 
L 288.046413 -366.676852 
L 287.232743 -366.508264 
L 286.419072 -366.341041 
L 285.605402 -366.175184 
L 284.791731 -366.010692 
L 283.978061 -365.847567 
L 283.16439 -365.685807 
L 282.35072 -365.525412 
L 281.537049 -365.366384 
L 280.723378 -365.208721 
L 279.909708 -365.052423 
L 279.096037 -364.897492 
L 278.282367 -364.743926 
L 277.468696 -364.591725 
L 276.655026 -364.440891 
L 275.841355 -364.291422 
L 275.027685 -364.143319 
L 274.214014 -363.996581 
L 273.400344 -363.851209 
L 272.586673 -363.707203 
L 271.773002 -363.564563 
L 270.959332 -363.423288 
L 270.145661 -363.283379 
L 269.331991 -363.144835 
L 268.51832 -363.007658 
L 267.70465 -362.871846 
L 266.890979 -362.737399 
L 266.077309 -362.604318 
L 265.263638 -362.472603 
L 264.449968 -362.342254 
L 263.636297 -362.213271 
L 262.822627 -362.085653 
L 262.008956 -361.9594 
L 261.195285 -361.834514 
L 260.381615 -361.710993 
L 259.567944 -361.588838 
L 258.754274 -361.468048 
L 257.940603 -361.348624 
L 257.126933 -361.230566 
L 256.313262 -361.113874 
L 255.499592 -360.998547 
L 254.685921 -360.884586 
L 253.872251 -360.77199 
L 253.05858 -360.660761 
L 252.24491 -360.550897 
L 251.431239 -360.442398 
L 250.617568 -360.335265 
L 249.803898 -360.229498 
L 248.990227 -360.125097 
L 248.176557 -360.022062 
L 247.362886 -359.920392 
L 246.549216 -359.820087 
L 245.735545 -359.721149 
L 244.921875 -359.623576 
L 244.108204 -359.527369 
L 243.294534 -359.432527 
L 242.480863 -359.339051 
L 241.667193 -359.246941 
L 240.853522 -359.156197 
L 240.039851 -359.066818 
L 239.226181 -358.978805 
L 238.41251 -358.892157 
L 237.59884 -358.806876 
L 236.785169 -358.72296 
L 235.971499 -358.640409 
L 235.157828 -358.559225 
L 234.344158 -358.479406 
L 233.530487 -358.400952 
L 232.716817 -358.323865 
L 231.903146 -358.248143 
L 231.089475 -358.173786 
L 230.275805 -358.100796 
L 229.462134 -358.029171 
L 228.648464 -357.958912 
L 227.834793 -357.890018 
L 227.021123 -357.82249 
L 226.207452 -357.756328 
L 225.393782 -357.691532 
L 224.580111 -357.628101 
L 223.766441 -357.566036 
L 222.95277 -357.505336 
L 222.1391 -357.446003 
L 221.325429 -357.388035 
L 220.511758 -357.331432 
L 219.698088 -357.276196 
L 218.884417 -357.222325 
L 218.070747 -357.169819 
L 217.257076 -357.11868 
L 216.443406 -357.068906 
L 215.629735 -357.020498 
L 214.816065 -356.973455 
L 214.002394 -356.927778 
L 213.188724 -356.883467 
L 212.375053 -356.840521 
L 211.561383 -356.798942 
L 210.747712 -356.758727 
L 209.934041 -356.719879 
L 209.120371 -356.682396 
L 208.3067 -356.646279 
L 207.49303 -356.611528 
L 206.679359 -356.578142 
L 205.865689 -356.546122 
L 205.052018 -356.515468 
L 204.238348 -356.486179 
L 203.424677 -356.458256 
L 202.611007 -356.431699 
L 201.797336 -356.406507 
L 200.983666 -356.382681 
L 200.169995 -356.360221 
L 199.356324 -356.339126 
L 198.542654 -356.319397 
L 197.728983 -356.301034 
L 196.915313 -356.284037 
L 196.101642 -356.268405 
L 195.287972 -356.254139 
L 194.474301 -356.241238 
L 193.660631 -356.229704 
L 192.84696 -356.219534 
L 192.03329 -356.210731 
L 191.219619 -356.203293 
L 190.405949 -356.197221 
L 189.592278 -356.192515 
L 188.778607 -356.189174 
L 187.964937 -356.187199 
L 187.151266 -356.18659 
L 186.337596 -356.187346 
L 185.523925 -356.189468 
L 184.710255 -356.192956 
L 183.896584 -356.19781 
L 183.082914 -356.204029 
L 182.269243 -356.211614 
L 181.455573 -356.220564 
L 180.641902 -356.23088 
L 179.828231 -356.242562 
L 179.014561 -356.25561 
L 178.20089 -356.270023 
L 177.38722 -356.285802 
L 176.573549 -356.302946 
L 175.759879 -356.321457 
L 174.946208 -356.341333 
L 174.132538 -356.362574 
L 173.318867 -356.385182 
L 172.505197 -356.409155 
L 171.691526 -356.434493 
L 170.877856 -356.461198 
L 170.064185 -356.489268 
L 169.250514 -356.518704 
L 168.436844 -356.549505 
L 167.623173 -356.581672 
L 166.809503 -356.615205 
L 165.995832 -356.650104 
L 165.182162 -356.686368 
L 164.368491 -356.723998 
L 163.554821 -356.762993 
L 162.74115 -356.803354 
L 161.92748 -356.845081 
L 161.113809 -356.888174 
L 160.300139 -356.932632 
L 159.486468 -356.978456 
L 158.672797 -357.025646 
L 157.859127 -357.074201 
L 157.045456 -357.124122 
L 156.231786 -357.175409 
L 155.418115 -357.228061 
L 154.604445 -357.28208 
L 153.790774 -357.337463 
L 152.977104 -357.394213 
L 152.163433 -357.452328 
L 151.349763 -357.511809 
L 150.536092 -357.572655 
L 149.722422 -357.634867 
L 148.908751 -357.698445 
L 148.09508 -357.763389 
L 147.28141 -357.829698 
L 146.467739 -357.897373 
L 145.654069 -357.966414 
L 144.840398 -358.03682 
L 144.026728 -358.108592 
L 143.213057 -358.18173 
L 142.399387 -358.256233 
L 141.585716 -358.332102 
L 140.772046 -358.409337 
L 139.958375 -358.487937 
L 139.144704 -358.567903 
L 138.331034 -358.649235 
L 137.517363 -358.731932 
L 136.703693 -358.815996 
L 135.890022 -358.901424 
L 135.076352 -358.988219 
L 134.262681 -359.076379 
L 133.449011 -359.165905 
L 132.63534 -359.256797 
L 131.82167 -359.349054 
L 131.007999 -359.442677 
L 130.194329 -359.537665 
L 129.380658 -359.63402 
L 128.566987 -359.73174 
L 127.753317 -359.830825 
L 126.939646 -359.931277 
L 126.125976 -360.033094 
L 125.312305 -360.136276 
L 124.498635 -360.240825 
L 123.684964 -360.346739 
L 122.871294 -360.454019 
L 122.057623 -360.562664 
L 121.243953 -360.672675 
L 120.430282 -360.784052 
L 119.616612 -360.896795 
L 118.802941 -361.010903 
L 117.98927 -361.126377 
L 117.1756 -361.243216 
L 116.361929 -361.361422 
L 115.548259 -361.480993 
L 114.734588 -361.601929 
L 113.920918 -361.724231 
L 113.107247 -361.847899 
L 112.293577 -361.972933 
L 111.479906 -362.099333 
L 110.666236 -362.227098 
L 109.852565 -362.356228 
L 109.038895 -362.486725 
L 108.225224 -362.618587 
L 107.411553 -362.751815 
L 106.597883 -362.886408 
L 105.784212 -363.022367 
L 104.970542 -363.159692 
L 104.156871 -363.298383 
L 103.343201 -363.438439 
L 102.52953 -363.579861 
L 101.71586 -363.722648 
L 100.902189 -363.866802 
L 100.088519 -364.01232 
L 99.274848 -364.159205 
L 98.461177 -364.307455 
L 97.647507 -364.457071 
L 96.833836 -364.608053 
L 96.020166 -364.7604 
L 95.206495 -364.914114 
L 94.392825 -365.069192 
L 93.579154 -365.225637 
L 92.765484 -365.383447 
L 91.951813 -365.542623 
L 91.138143 -365.703164 
L 90.324472 -365.865071 
L 89.510802 -366.028344 
L 88.697131 -366.192983 
L 87.88346 -366.358987 
L 87.06979 -366.526357 
L 86.256119 -366.695092 
L 85.442449 -366.865194 
L 84.628778 -367.03666 
L 83.815108 -367.209493 
L 83.001437 -367.383691 
L 82.187767 -367.559255 
L 81.374096 -367.736185 
L 80.560426 -367.91448 
L 79.746755 -368.094142 
L 78.933085 -368.275168 
L 78.119414 -368.457561 
L 77.305743 -368.641319 
L 76.492073 -368.826443 
L 75.678402 -369.012932 
L 74.864732 -369.200787 
L 74.051061 -369.390008 
L 73.237391 -369.580595 
L 72.42372 -369.772547 
L 71.61005 -369.965865 
L 70.796379 -370.160548 
L 69.982709 -370.356598 
L 69.169038 -370.554013 
L 68.355368 -370.752793 
L 67.541697 -370.95294 
L 66.728026 -371.154452 
L 65.914356 -371.357329 
L 65.100685 -371.561573 
L 64.287015 -371.767182 
L 63.473344 -371.974156 
L 62.659674 -372.182497 
L 61.846003 -372.392203 
L 61.032333 -372.603275 
L 60.218662 -372.815712 
L 59.404992 -373.029515 
L 58.591321 -373.244684 
z
" style="stroke: #d8bfd8; stroke-opacity: 0.25"/>
    </defs>
    <g clip-path="url(#p30ccea457b)">
     <use xlink:href="#m2cdd4189cf" x="0" y="415.125025" style="fill: #d8bfd8; fill-opacity: 0.25; stroke: #d8bfd8; stroke-opacity: 0.25"/>
    </g>
   </g>
   <g id="matplotlib.axis_1">
    <g id="xtick_1">
     <g id="line2d_1">
      <defs>
       <path id="m96ee42a0d3" d="M 0 0 
L 0 3.5 
" style="stroke: #000000; stroke-width: 0.8"/>
      </defs>
      <g>
       <use xlink:href="#m96ee42a0d3" x="58.591321" y="273.312" style="stroke: #000000; stroke-width: 0.8"/>
      </g>
     </g>
     <g id="text_1">
      <!-- 1.0 -->
      <g transform="translate(46.449915 287.910437) scale(0.1 -0.1)">
       <defs>
        <path id="DejaVuSans-2212" d="M 678 2272 
L 4684 2272 
L 4684 1741 
L 678 1741 
L 678 2272 
z
" transform="scale(0.015625)"/>
        <path id="DejaVuSans-31" d="M 794 531 
L 1825 531 
L 1825 4091 
L 703 3866 
L 703 4441 
L 1819 4666 
L 2450 4666 
L 2450 531 
L 3481 531 
L 3481 0 
L 794 0 
L 794 531 
z
" transform="scale(0.015625)"/>
        <path id="DejaVuSans-2e" d="M 684 794 
L 1344 794 
L 1344 0 
L 684 0 
L 684 794 
z
" transform="scale(0.015625)"/>
        <path id="DejaVuSans-30" d="M 2034 4250 
Q 1547 4250 1301 3770 
Q 1056 3291 1056 2328 
Q 1056 1369 1301 889 
Q 1547 409 2034 409 
Q 2525 409 2770 889 
Q 3016 1369 3016 2328 
Q 3016 3291 2770 3770 
Q 2525 4250 2034 4250 
z
M 2034 4750 
Q 2819 4750 3233 4129 
Q 3647 3509 3647 2328 
Q 3647 1150 3233 529 
Q 2819 -91 2034 -91 
Q 1250 -91 836 529 
Q 422 1150 422 2328 
Q 422 3509 836 4129 
Q 1250 4750 2034 4750 
z
" transform="scale(0.015625)"/>
       </defs>
       <use xlink:href="#DejaVuSans-2212"/>
       <use xlink:href="#DejaVuSans-31" x="83.789062"/>
       <use xlink:href="#DejaVuSans-2e" x="147.412109"/>
       <use xlink:href="#DejaVuSans-30" x="179.199219"/>
      </g>
     </g>
    </g>
    <g id="xtick_2">
     <g id="line2d_2">
      <g>
       <use xlink:href="#m96ee42a0d3" x="123.52223" y="273.312" style="stroke: #000000; stroke-width: 0.8"/>
      </g>
     </g>
     <g id="text_2">
      <!-- 0.5 -->
      <g transform="translate(111.380824 287.910437) scale(0.1 -0.1)">
       <defs>
        <path id="DejaVuSans-35" d="M 691 4666 
L 3169 4666 
L 3169 4134 
L 1269 4134 
L 1269 2991 
Q 1406 3038 1543 3061 
Q 1681 3084 1819 3084 
Q 2600 3084 3056 2656 
Q 3513 2228 3513 1497 
Q 3513 744 3044 326 
Q 2575 -91 1722 -91 
Q 1428 -91 1123 -41 
Q 819 9 494 109 
L 494 744 
Q 775 591 1075 516 
Q 1375 441 1709 441 
Q 2250 441 2565 725 
Q 2881 1009 2881 1497 
Q 2881 1984 2565 2268 
Q 2250 2553 1709 2553 
Q 1456 2553 1204 2497 
Q 953 2441 691 2322 
L 691 4666 
z
" transform="scale(0.015625)"/>
       </defs>
       <use xlink:href="#DejaVuSans-2212"/>
       <use xlink:href="#DejaVuSans-30" x="83.789062"/>
       <use xlink:href="#DejaVuSans-2e" x="147.412109"/>
       <use xlink:href="#DejaVuSans-35" x="179.199219"/>
      </g>
     </g>
    </g>
    <g id="xtick_3">
     <g id="line2d_3">
      <g>
       <use xlink:href="#m96ee42a0d3" x="188.453139" y="273.312" style="stroke: #000000; stroke-width: 0.8"/>
      </g>
     </g>
     <g id="text_3">
      <!-- 0.0 -->
      <g transform="translate(180.501577 287.910437) scale(0.1 -0.1)">
       <use xlink:href="#DejaVuSans-30"/>
       <use xlink:href="#DejaVuSans-2e" x="63.623047"/>
       <use xlink:href="#DejaVuSans-30" x="95.410156"/>
      </g>
     </g>
    </g>
    <g id="xtick_4">
     <g id="line2d_4">
      <g>
       <use xlink:href="#m96ee42a0d3" x="253.384048" y="273.312" style="stroke: #000000; stroke-width: 0.8"/>
      </g>
     </g>
     <g id="text_4">
      <!-- 0.5 -->
      <g transform="translate(245.432486 287.910437) scale(0.1 -0.1)">
       <use xlink:href="#DejaVuSans-30"/>
       <use xlink:href="#DejaVuSans-2e" x="63.623047"/>
       <use xlink:href="#DejaVuSans-35" x="95.410156"/>
      </g>
     </g>
    </g>
    <g id="xtick_5">
     <g id="line2d_5">
      <g>
       <use xlink:href="#m96ee42a0d3" x="318.314957" y="273.312" style="stroke: #000000; stroke-width: 0.8"/>
      </g>
     </g>
     <g id="text_5">
      <!-- 1.0 -->
      <g transform="translate(310.363395 287.910437) scale(0.1 -0.1)">
       <use xlink:href="#DejaVuSans-31"/>
       <use xlink:href="#DejaVuSans-2e" x="63.623047"/>
       <use xlink:href="#DejaVuSans-30" x="95.410156"/>
      </g>
     </g>
    </g>
    <g id="xtick_6">
     <g id="line2d_6">
      <g>
       <use xlink:href="#m96ee42a0d3" x="383.245866" y="273.312" style="stroke: #000000; stroke-width: 0.8"/>
      </g>
     </g>
     <g id="text_6">
      <!-- 1.5 -->
      <g transform="translate(375.294304 287.910437) scale(0.1 -0.1)">
       <use xlink:href="#DejaVuSans-31"/>
       <use xlink:href="#DejaVuSans-2e" x="63.623047"/>
       <use xlink:href="#DejaVuSans-35" x="95.410156"/>
      </g>
     </g>
    </g>
    <g id="text_7">
     <!-- X -->
     <g transform="translate(217.493594 301.588562) scale(0.1 -0.1)">
      <defs>
       <path id="DejaVuSans-58" d="M 403 4666 
L 1081 4666 
L 2241 2931 
L 3406 4666 
L 4084 4666 
L 2584 2425 
L 4184 0 
L 3506 0 
L 2194 1984 
L 872 0 
L 191 0 
L 1856 2491 
L 403 4666 
z
" transform="scale(0.015625)"/>
      </defs>
      <use xlink:href="#DejaVuSans-58"/>
     </g>
    </g>
   </g>
   <g id="matplotlib.axis_2">
    <g id="ytick_1">
     <g id="line2d_7">
      <defs>
       <path id="mbcb5cf4072" d="M 0 0 
L -3.5 0 
" style="stroke: #000000; stroke-width: 0.8"/>
      </defs>
      <g>
       <use xlink:href="#mbcb5cf4072" x="42.358594" y="265.31717" style="stroke: #000000; stroke-width: 0.8"/>
      </g>
     </g>
     <g id="text_8">
      <!-- 10 -->
      <g transform="translate(14.253906 269.116389) scale(0.1 -0.1)">
       <use xlink:href="#DejaVuSans-2212"/>
       <use xlink:href="#DejaVuSans-31" x="83.789062"/>
       <use xlink:href="#DejaVuSans-30" x="147.412109"/>
      </g>
     </g>
    </g>
    <g id="ytick_2">
     <g id="line2d_8">
      <g>
       <use xlink:href="#mbcb5cf4072" x="42.358594" y="235.641391" style="stroke: #000000; stroke-width: 0.8"/>
      </g>
     </g>
     <g id="text_9">
      <!-- 8 -->
      <g transform="translate(20.616406 239.44061) scale(0.1 -0.1)">
       <defs>
        <path id="DejaVuSans-38" d="M 2034 2216 
Q 1584 2216 1326 1975 
Q 1069 1734 1069 1313 
Q 1069 891 1326 650 
Q 1584 409 2034 409 
Q 2484 409 2743 651 
Q 3003 894 3003 1313 
Q 3003 1734 2745 1975 
Q 2488 2216 2034 2216 
z
M 1403 2484 
Q 997 2584 770 2862 
Q 544 3141 544 3541 
Q 544 4100 942 4425 
Q 1341 4750 2034 4750 
Q 2731 4750 3128 4425 
Q 3525 4100 3525 3541 
Q 3525 3141 3298 2862 
Q 3072 2584 2669 2484 
Q 3125 2378 3379 2068 
Q 3634 1759 3634 1313 
Q 3634 634 3220 271 
Q 2806 -91 2034 -91 
Q 1263 -91 848 271 
Q 434 634 434 1313 
Q 434 1759 690 2068 
Q 947 2378 1403 2484 
z
M 1172 3481 
Q 1172 3119 1398 2916 
Q 1625 2713 2034 2713 
Q 2441 2713 2670 2916 
Q 2900 3119 2900 3481 
Q 2900 3844 2670 4047 
Q 2441 4250 2034 4250 
Q 1625 4250 1398 4047 
Q 1172 3844 1172 3481 
z
" transform="scale(0.015625)"/>
       </defs>
       <use xlink:href="#DejaVuSans-2212"/>
       <use xlink:href="#DejaVuSans-38" x="83.789062"/>
      </g>
     </g>
    </g>
    <g id="ytick_3">
     <g id="line2d_9">
      <g>
       <use xlink:href="#mbcb5cf4072" x="42.358594" y="205.965613" style="stroke: #000000; stroke-width: 0.8"/>
      </g>
     </g>
     <g id="text_10">
      <!-- 6 -->
      <g transform="translate(20.616406 209.764831) scale(0.1 -0.1)">
       <defs>
        <path id="DejaVuSans-36" d="M 2113 2584 
Q 1688 2584 1439 2293 
Q 1191 2003 1191 1497 
Q 1191 994 1439 701 
Q 1688 409 2113 409 
Q 2538 409 2786 701 
Q 3034 994 3034 1497 
Q 3034 2003 2786 2293 
Q 2538 2584 2113 2584 
z
M 3366 4563 
L 3366 3988 
Q 3128 4100 2886 4159 
Q 2644 4219 2406 4219 
Q 1781 4219 1451 3797 
Q 1122 3375 1075 2522 
Q 1259 2794 1537 2939 
Q 1816 3084 2150 3084 
Q 2853 3084 3261 2657 
Q 3669 2231 3669 1497 
Q 3669 778 3244 343 
Q 2819 -91 2113 -91 
Q 1303 -91 875 529 
Q 447 1150 447 2328 
Q 447 3434 972 4092 
Q 1497 4750 2381 4750 
Q 2619 4750 2861 4703 
Q 3103 4656 3366 4563 
z
" transform="scale(0.015625)"/>
       </defs>
       <use xlink:href="#DejaVuSans-2212"/>
       <use xlink:href="#DejaVuSans-36" x="83.789062"/>
      </g>
     </g>
    </g>
    <g id="ytick_4">
     <g id="line2d_10">
      <g>
       <use xlink:href="#mbcb5cf4072" x="42.358594" y="176.289834" style="stroke: #000000; stroke-width: 0.8"/>
      </g>
     </g>
     <g id="text_11">
      <!-- 4 -->
      <g transform="translate(20.616406 180.089052) scale(0.1 -0.1)">
       <defs>
        <path id="DejaVuSans-34" d="M 2419 4116 
L 825 1625 
L 2419 1625 
L 2419 4116 
z
M 2253 4666 
L 3047 4666 
L 3047 1625 
L 3713 1625 
L 3713 1100 
L 3047 1100 
L 3047 0 
L 2419 0 
L 2419 1100 
L 313 1100 
L 313 1709 
L 2253 4666 
z
" transform="scale(0.015625)"/>
       </defs>
       <use xlink:href="#DejaVuSans-2212"/>
       <use xlink:href="#DejaVuSans-34" x="83.789062"/>
      </g>
     </g>
    </g>
    <g id="ytick_5">
     <g id="line2d_11">
      <g>
       <use xlink:href="#mbcb5cf4072" x="42.358594" y="146.614055" style="stroke: #000000; stroke-width: 0.8"/>
      </g>
     </g>
     <g id="text_12">
      <!-- 2 -->
      <g transform="translate(20.616406 150.413274) scale(0.1 -0.1)">
       <defs>
        <path id="DejaVuSans-32" d="M 1228 531 
L 3431 531 
L 3431 0 
L 469 0 
L 469 531 
Q 828 903 1448 1529 
Q 2069 2156 2228 2338 
Q 2531 2678 2651 2914 
Q 2772 3150 2772 3378 
Q 2772 3750 2511 3984 
Q 2250 4219 1831 4219 
Q 1534 4219 1204 4116 
Q 875 4013 500 3803 
L 500 4441 
Q 881 4594 1212 4672 
Q 1544 4750 1819 4750 
Q 2544 4750 2975 4387 
Q 3406 4025 3406 3419 
Q 3406 3131 3298 2873 
Q 3191 2616 2906 2266 
Q 2828 2175 2409 1742 
Q 1991 1309 1228 531 
z
" transform="scale(0.015625)"/>
       </defs>
       <use xlink:href="#DejaVuSans-2212"/>
       <use xlink:href="#DejaVuSans-32" x="83.789062"/>
      </g>
     </g>
    </g>
    <g id="ytick_6">
     <g id="line2d_12">
      <g>
       <use xlink:href="#mbcb5cf4072" x="42.358594" y="116.938276" style="stroke: #000000; stroke-width: 0.8"/>
      </g>
     </g>
     <g id="text_13">
      <!-- 0 -->
      <g transform="translate(28.996094 120.737495) scale(0.1 -0.1)">
       <use xlink:href="#DejaVuSans-30"/>
      </g>
     </g>
    </g>
    <g id="ytick_7">
     <g id="line2d_13">
      <g>
       <use xlink:href="#mbcb5cf4072" x="42.358594" y="87.262497" style="stroke: #000000; stroke-width: 0.8"/>
      </g>
     </g>
     <g id="text_14">
      <!-- 2 -->
      <g transform="translate(28.996094 91.061716) scale(0.1 -0.1)">
       <use xlink:href="#DejaVuSans-32"/>
      </g>
     </g>
    </g>
    <g id="ytick_8">
     <g id="line2d_14">
      <g>
       <use xlink:href="#mbcb5cf4072" x="42.358594" y="57.586718" style="stroke: #000000; stroke-width: 0.8"/>
      </g>
     </g>
     <g id="text_15">
      <!-- 4 -->
      <g transform="translate(28.996094 61.385937) scale(0.1 -0.1)">
       <use xlink:href="#DejaVuSans-34"/>
      </g>
     </g>
    </g>
    <g id="ytick_9">
     <g id="line2d_15">
      <g>
       <use xlink:href="#mbcb5cf4072" x="42.358594" y="27.910939" style="stroke: #000000; stroke-width: 0.8"/>
      </g>
     </g>
     <g id="text_16">
      <!-- 6 -->
      <g transform="translate(28.996094 31.710158) scale(0.1 -0.1)">
       <use xlink:href="#DejaVuSans-36"/>
      </g>
     </g>
    </g>
    <g id="text_17">
     <!-- Y -->
     <g transform="translate(7.2 138.176312) scale(0.1 -0.1)">
      <defs>
       <path id="DejaVuSans-59" d="M -13 4666 
L 666 4666 
L 1959 2747 
L 3244 4666 
L 3922 4666 
L 2272 2222 
L 2272 0 
L 1638 0 
L 1638 2222 
L -13 4666 
z
" transform="scale(0.015625)"/>
      </defs>
      <use xlink:href="#DejaVuSans-59"/>
     </g>
    </g>
   </g>
   <g id="line2d_16">
    <defs>
     <path id="m653d297353" d="M 0 1.5 
C 0.397805 1.5 0.77937 1.341951 1.06066 1.06066 
C 1.341951 0.77937 1.5 0.397805 1.5 0 
C 1.5 -0.397805 1.341951 -0.77937 1.06066 -1.06066 
C 0.77937 -1.341951 0.397805 -1.5 0 -1.5 
C -0.397805 -1.5 -0.77937 -1.341951 -1.06066 -1.06066 
C -1.341951 -0.77937 -1.5 -0.397805 -1.5 0 
C -1.5 0.397805 -1.341951 0.77937 -1.06066 1.06066 
C -0.77937 1.341951 -0.397805 1.5 0 1.5 
z
" style="stroke: #000000; stroke-opacity: 0.6"/>
    </defs>
    <g clip-path="url(#p30ccea457b)">
     <use xlink:href="#m653d297353" x="243.738096" y="102.321813" style="fill-opacity: 0.6; stroke: #000000; stroke-opacity: 0.6"/>
     <use xlink:href="#m653d297353" x="294.236465" y="121.70883" style="fill-opacity: 0.6; stroke: #000000; stroke-opacity: 0.6"/>
     <use xlink:href="#m653d297353" x="283.953168" y="124.016246" style="fill-opacity: 0.6; stroke: #000000; stroke-opacity: 0.6"/>
     <use xlink:href="#m653d297353" x="301.173613" y="104.514245" style="fill-opacity: 0.6; stroke: #000000; stroke-opacity: 0.6"/>
     <use xlink:href="#m653d297353" x="238.239663" y="160.00955" style="fill-opacity: 0.6; stroke: #000000; stroke-opacity: 0.6"/>
     <use xlink:href="#m653d297353" x="315.647158" y="107.938811" style="fill-opacity: 0.6; stroke: #000000; stroke-opacity: 0.6"/>
     <use xlink:href="#m653d297353" x="304.444981" y="82.12408" style="fill-opacity: 0.6; stroke: #000000; stroke-opacity: 0.6"/>
     <use xlink:href="#m653d297353" x="215.687132" y="104.885084" style="fill-opacity: 0.6; stroke: #000000; stroke-opacity: 0.6"/>
     <use xlink:href="#m653d297353" x="284.788226" y="98.140254" style="fill-opacity: 0.6; stroke: #000000; stroke-opacity: 0.6"/>
     <use xlink:href="#m653d297353" x="274.570136" y="106.580607" style="fill-opacity: 0.6; stroke: #000000; stroke-opacity: 0.6"/>
     <use xlink:href="#m653d297353" x="303.614789" y="126.572758" style="fill-opacity: 0.6; stroke: #000000; stroke-opacity: 0.6"/>
     <use xlink:href="#m653d297353" x="299.87623" y="116.086959" style="fill-opacity: 0.6; stroke: #000000; stroke-opacity: 0.6"/>
     <use xlink:href="#m653d297353" x="285.753693" y="105.287269" style="fill-opacity: 0.6; stroke: #000000; stroke-opacity: 0.6"/>
     <use xlink:href="#m653d297353" x="301.451715" y="114.052858" style="fill-opacity: 0.6; stroke: #000000; stroke-opacity: 0.6"/>
     <use xlink:href="#m653d297353" x="212.705593" y="156.954485" style="fill-opacity: 0.6; stroke: #000000; stroke-opacity: 0.6"/>
     <use xlink:href="#m653d297353" x="230.731825" y="71.259063" style="fill-opacity: 0.6; stroke: #000000; stroke-opacity: 0.6"/>
     <use xlink:href="#m653d297353" x="236.883473" y="127.028038" style="fill-opacity: 0.6; stroke: #000000; stroke-opacity: 0.6"/>
     <use xlink:href="#m653d297353" x="291.526156" y="126.754681" style="fill-opacity: 0.6; stroke: #000000; stroke-opacity: 0.6"/>
     <use xlink:href="#m653d297353" x="208.0701" y="141.886277" style="fill-opacity: 0.6; stroke: #000000; stroke-opacity: 0.6"/>
     <use xlink:href="#m653d297353" x="210.522207" y="141.707996" style="fill-opacity: 0.6; stroke: #000000; stroke-opacity: 0.6"/>
     <use xlink:href="#m653d297353" x="198.993905" y="122.829882" style="fill-opacity: 0.6; stroke: #000000; stroke-opacity: 0.6"/>
     <use xlink:href="#m653d297353" x="228.083764" y="127.935056" style="fill-opacity: 0.6; stroke: #000000; stroke-opacity: 0.6"/>
     <use xlink:href="#m653d297353" x="290.172577" y="114.119883" style="fill-opacity: 0.6; stroke: #000000; stroke-opacity: 0.6"/>
     <use xlink:href="#m653d297353" x="209.608432" y="135.725421" style="fill-opacity: 0.6; stroke: #000000; stroke-opacity: 0.6"/>
     <use xlink:href="#m653d297353" x="197.626746" y="158.967401" style="fill-opacity: 0.6; stroke: #000000; stroke-opacity: 0.6"/>
     <use xlink:href="#m653d297353" x="279.495516" y="127.815379" style="fill-opacity: 0.6; stroke: #000000; stroke-opacity: 0.6"/>
     <use xlink:href="#m653d297353" x="211.955515" y="131.050957" style="fill-opacity: 0.6; stroke: #000000; stroke-opacity: 0.6"/>
     <use xlink:href="#m653d297353" x="266.229622" y="152.938583" style="fill-opacity: 0.6; stroke: #000000; stroke-opacity: 0.6"/>
     <use xlink:href="#m653d297353" x="242.380032" y="124.167006" style="fill-opacity: 0.6; stroke: #000000; stroke-opacity: 0.6"/>
     <use xlink:href="#m653d297353" x="255.146565" y="159.138551" style="fill-opacity: 0.6; stroke: #000000; stroke-opacity: 0.6"/>
     <use xlink:href="#m653d297353" x="217.107951" y="144.399509" style="fill-opacity: 0.6; stroke: #000000; stroke-opacity: 0.6"/>
     <use xlink:href="#m653d297353" x="282.677369" y="110.746777" style="fill-opacity: 0.6; stroke: #000000; stroke-opacity: 0.6"/>
     <use xlink:href="#m653d297353" x="298.762306" y="121.786745" style="fill-opacity: 0.6; stroke: #000000; stroke-opacity: 0.6"/>
     <use xlink:href="#m653d297353" x="309.080851" y="93.508456" style="fill-opacity: 0.6; stroke: #000000; stroke-opacity: 0.6"/>
     <use xlink:href="#m653d297353" x="284.023651" y="100.874753" style="fill-opacity: 0.6; stroke: #000000; stroke-opacity: 0.6"/>
     <use xlink:href="#m653d297353" x="250.343625" y="104.583872" style="fill-opacity: 0.6; stroke: #000000; stroke-opacity: 0.6"/>
     <use xlink:href="#m653d297353" x="252.461117" y="128.559418" style="fill-opacity: 0.6; stroke: #000000; stroke-opacity: 0.6"/>
     <use xlink:href="#m653d297353" x="265.658623" y="111.434133" style="fill-opacity: 0.6; stroke: #000000; stroke-opacity: 0.6"/>
     <use xlink:href="#m653d297353" x="198.327438" y="129.245171" style="fill-opacity: 0.6; stroke: #000000; stroke-opacity: 0.6"/>
     <use xlink:href="#m653d297353" x="203.708906" y="112.195001" style="fill-opacity: 0.6; stroke: #000000; stroke-opacity: 0.6"/>
     <use xlink:href="#m653d297353" x="313.960128" y="117.218992" style="fill-opacity: 0.6; stroke: #000000; stroke-opacity: 0.6"/>
     <use xlink:href="#m653d297353" x="264.204432" y="117.581181" style="fill-opacity: 0.6; stroke: #000000; stroke-opacity: 0.6"/>
     <use xlink:href="#m653d297353" x="200.455217" y="143.891966" style="fill-opacity: 0.6; stroke: #000000; stroke-opacity: 0.6"/>
     <use xlink:href="#m653d297353" x="190.223091" y="132.485872" style="fill-opacity: 0.6; stroke: #000000; stroke-opacity: 0.6"/>
     <use xlink:href="#m653d297353" x="297.138405" y="94.701419" style="fill-opacity: 0.6; stroke: #000000; stroke-opacity: 0.6"/>
     <use xlink:href="#m653d297353" x="307.249159" y="168.740912" style="fill-opacity: 0.6; stroke: #000000; stroke-opacity: 0.6"/>
     <use xlink:href="#m653d297353" x="279.951992" y="155.544621" style="fill-opacity: 0.6; stroke: #000000; stroke-opacity: 0.6"/>
     <use xlink:href="#m653d297353" x="238.71052" y="120.09245" style="fill-opacity: 0.6; stroke: #000000; stroke-opacity: 0.6"/>
     <use xlink:href="#m653d297353" x="280.095833" y="120.332346" style="fill-opacity: 0.6; stroke: #000000; stroke-opacity: 0.6"/>
     <use xlink:href="#m653d297353" x="308.356005" y="109.646795" style="fill-opacity: 0.6; stroke: #000000; stroke-opacity: 0.6"/>
    </g>
   </g>
   <g id="line2d_17">
    <path d="M 58.591321 136.350278 
L 383.245866 117.920745 
L 383.245866 117.920745 
" clip-path="url(#p30ccea457b)" style="fill: none; stroke: #000000; stroke-opacity: 0.9; stroke-width: 1.5; stroke-linecap: square"/>
   </g>
   <g id="line2d_18">
    <path d="M 58.591321 161.359306 
L 383.245866 98.699651 
L 383.245866 98.699651 
" clip-path="url(#p30ccea457b)" style="fill: none; stroke: #4682b4; stroke-opacity: 0.9; stroke-width: 1.5; stroke-linecap: square"/>
   </g>
   <g id="line2d_19">
    <path d="M 58.591321 151.54817 
L 383.245866 104.258673 
L 383.245866 104.258673 
" clip-path="url(#p30ccea457b)" style="fill: none; stroke: #b22222; stroke-opacity: 0.9; stroke-width: 1.5; stroke-linecap: square"/>
   </g>
   <g id="patch_3">
    <path d="M 42.358594 273.312 
L 42.358594 7.2 
" style="fill: none; stroke: #000000; stroke-width: 0.8; stroke-linejoin: miter; stroke-linecap: square"/>
   </g>
   <g id="patch_4">
    <path d="M 399.478594 273.312 
L 399.478594 7.2 
" style="fill: none; stroke: #000000; stroke-width: 0.8; stroke-linejoin: miter; stroke-linecap: square"/>
   </g>
   <g id="patch_5">
    <path d="M 42.358594 273.312 
L 399.478594 273.312 
" style="fill: none; stroke: #000000; stroke-width: 0.8; stroke-linejoin: miter; stroke-linecap: square"/>
   </g>
   <g id="patch_6">
    <path d="M 42.358594 7.2 
L 399.478594 7.2 
" style="fill: none; stroke: #000000; stroke-width: 0.8; stroke-linejoin: miter; stroke-linecap: square"/>
   </g>
   <g id="legend_1">
    <g id="patch_7">
     <path d="M 149.245871 407.925025 
L 290.444308 407.925025 
Q 292.444308 407.925025 292.444308 405.925025 
L 292.444308 333.5344 
Q 292.444308 331.5344 290.444308 331.5344 
L 149.245871 331.5344 
Q 147.245871 331.5344 147.245871 333.5344 
L 147.245871 405.925025 
Q 147.245871 407.925025 149.245871 407.925025 
z
" style="fill: #ffffff; opacity: 0.8; stroke: #cccccc; stroke-linejoin: miter"/>
    </g>
    <g id="line2d_20">
     <path d="M 151.245871 339.632837 
L 161.245871 339.632837 
L 171.245871 339.632837 
" style="fill: none; stroke: #000000; stroke-opacity: 0.9; stroke-width: 1.5; stroke-linecap: square"/>
    </g>
    <g id="text_18">
     <!-- true -->
     <g transform="translate(179.245871 343.132837) scale(0.1 -0.1)">
      <defs>
       <path id="DejaVuSans-74" d="M 1172 4494 
L 1172 3500 
L 2356 3500 
L 2356 3053 
L 1172 3053 
L 1172 1153 
Q 1172 725 1289 603 
Q 1406 481 1766 481 
L 2356 481 
L 2356 0 
L 1766 0 
Q 1100 0 847 248 
Q 594 497 594 1153 
L 594 3053 
L 172 3053 
L 172 3500 
L 594 3500 
L 594 4494 
L 1172 4494 
z
" transform="scale(0.015625)"/>
       <path id="DejaVuSans-72" d="M 2631 2963 
Q 2534 3019 2420 3045 
Q 2306 3072 2169 3072 
Q 1681 3072 1420 2755 
Q 1159 2438 1159 1844 
L 1159 0 
L 581 0 
L 581 3500 
L 1159 3500 
L 1159 2956 
Q 1341 3275 1631 3429 
Q 1922 3584 2338 3584 
Q 2397 3584 2469 3576 
Q 2541 3569 2628 3553 
L 2631 2963 
z
" transform="scale(0.015625)"/>
       <path id="DejaVuSans-75" d="M 544 1381 
L 544 3500 
L 1119 3500 
L 1119 1403 
Q 1119 906 1312 657 
Q 1506 409 1894 409 
Q 2359 409 2629 706 
Q 2900 1003 2900 1516 
L 2900 3500 
L 3475 3500 
L 3475 0 
L 2900 0 
L 2900 538 
Q 2691 219 2414 64 
Q 2138 -91 1772 -91 
Q 1169 -91 856 284 
Q 544 659 544 1381 
z
M 1991 3584 
L 1991 3584 
z
" transform="scale(0.015625)"/>
       <path id="DejaVuSans-65" d="M 3597 1894 
L 3597 1613 
L 953 1613 
Q 991 1019 1311 708 
Q 1631 397 2203 397 
Q 2534 397 2845 478 
Q 3156 559 3463 722 
L 3463 178 
Q 3153 47 2828 -22 
Q 2503 -91 2169 -91 
Q 1331 -91 842 396 
Q 353 884 353 1716 
Q 353 2575 817 3079 
Q 1281 3584 2069 3584 
Q 2775 3584 3186 3129 
Q 3597 2675 3597 1894 
z
M 3022 2063 
Q 3016 2534 2758 2815 
Q 2500 3097 2075 3097 
Q 1594 3097 1305 2825 
Q 1016 2553 972 2059 
L 3022 2063 
z
" transform="scale(0.015625)"/>
      </defs>
      <use xlink:href="#DejaVuSans-74"/>
      <use xlink:href="#DejaVuSans-72" x="39.208984"/>
      <use xlink:href="#DejaVuSans-75" x="80.322266"/>
      <use xlink:href="#DejaVuSans-65" x="143.701172"/>
     </g>
    </g>
    <g id="line2d_21">
     <path d="M 151.245871 354.310962 
L 161.245871 354.310962 
L 171.245871 354.310962 
" style="fill: none; stroke: #4682b4; stroke-opacity: 0.9; stroke-width: 1.5; stroke-linecap: square"/>
    </g>
    <g id="text_19">
     <!-- max. likelihood -->
     <g transform="translate(179.245871 357.810962) scale(0.1 -0.1)">
      <defs>
       <path id="DejaVuSans-6d" d="M 3328 2828 
Q 3544 3216 3844 3400 
Q 4144 3584 4550 3584 
Q 5097 3584 5394 3201 
Q 5691 2819 5691 2113 
L 5691 0 
L 5113 0 
L 5113 2094 
Q 5113 2597 4934 2840 
Q 4756 3084 4391 3084 
Q 3944 3084 3684 2787 
Q 3425 2491 3425 1978 
L 3425 0 
L 2847 0 
L 2847 2094 
Q 2847 2600 2669 2842 
Q 2491 3084 2119 3084 
Q 1678 3084 1418 2786 
Q 1159 2488 1159 1978 
L 1159 0 
L 581 0 
L 581 3500 
L 1159 3500 
L 1159 2956 
Q 1356 3278 1631 3431 
Q 1906 3584 2284 3584 
Q 2666 3584 2933 3390 
Q 3200 3197 3328 2828 
z
" transform="scale(0.015625)"/>
       <path id="DejaVuSans-61" d="M 2194 1759 
Q 1497 1759 1228 1600 
Q 959 1441 959 1056 
Q 959 750 1161 570 
Q 1363 391 1709 391 
Q 2188 391 2477 730 
Q 2766 1069 2766 1631 
L 2766 1759 
L 2194 1759 
z
M 3341 1997 
L 3341 0 
L 2766 0 
L 2766 531 
Q 2569 213 2275 61 
Q 1981 -91 1556 -91 
Q 1019 -91 701 211 
Q 384 513 384 1019 
Q 384 1609 779 1909 
Q 1175 2209 1959 2209 
L 2766 2209 
L 2766 2266 
Q 2766 2663 2505 2880 
Q 2244 3097 1772 3097 
Q 1472 3097 1187 3025 
Q 903 2953 641 2809 
L 641 3341 
Q 956 3463 1253 3523 
Q 1550 3584 1831 3584 
Q 2591 3584 2966 3190 
Q 3341 2797 3341 1997 
z
" transform="scale(0.015625)"/>
       <path id="DejaVuSans-78" d="M 3513 3500 
L 2247 1797 
L 3578 0 
L 2900 0 
L 1881 1375 
L 863 0 
L 184 0 
L 1544 1831 
L 300 3500 
L 978 3500 
L 1906 2253 
L 2834 3500 
L 3513 3500 
z
" transform="scale(0.015625)"/>
       <path id="DejaVuSans-20" transform="scale(0.015625)"/>
       <path id="DejaVuSans-6c" d="M 603 4863 
L 1178 4863 
L 1178 0 
L 603 0 
L 603 4863 
z
" transform="scale(0.015625)"/>
       <path id="DejaVuSans-69" d="M 603 3500 
L 1178 3500 
L 1178 0 
L 603 0 
L 603 3500 
z
M 603 4863 
L 1178 4863 
L 1178 4134 
L 603 4134 
L 603 4863 
z
" transform="scale(0.015625)"/>
       <path id="DejaVuSans-6b" d="M 581 4863 
L 1159 4863 
L 1159 1991 
L 2875 3500 
L 3609 3500 
L 1753 1863 
L 3688 0 
L 2938 0 
L 1159 1709 
L 1159 0 
L 581 0 
L 581 4863 
z
" transform="scale(0.015625)"/>
       <path id="DejaVuSans-68" d="M 3513 2113 
L 3513 0 
L 2938 0 
L 2938 2094 
Q 2938 2591 2744 2837 
Q 2550 3084 2163 3084 
Q 1697 3084 1428 2787 
Q 1159 2491 1159 1978 
L 1159 0 
L 581 0 
L 581 4863 
L 1159 4863 
L 1159 2956 
Q 1366 3272 1645 3428 
Q 1925 3584 2291 3584 
Q 2894 3584 3203 3211 
Q 3513 2838 3513 2113 
z
" transform="scale(0.015625)"/>
       <path id="DejaVuSans-6f" d="M 1959 3097 
Q 1497 3097 1228 2736 
Q 959 2375 959 1747 
Q 959 1119 1226 758 
Q 1494 397 1959 397 
Q 2419 397 2687 759 
Q 2956 1122 2956 1747 
Q 2956 2369 2687 2733 
Q 2419 3097 1959 3097 
z
M 1959 3584 
Q 2709 3584 3137 3096 
Q 3566 2609 3566 1747 
Q 3566 888 3137 398 
Q 2709 -91 1959 -91 
Q 1206 -91 779 398 
Q 353 888 353 1747 
Q 353 2609 779 3096 
Q 1206 3584 1959 3584 
z
" transform="scale(0.015625)"/>
       <path id="DejaVuSans-64" d="M 2906 2969 
L 2906 4863 
L 3481 4863 
L 3481 0 
L 2906 0 
L 2906 525 
Q 2725 213 2448 61 
Q 2172 -91 1784 -91 
Q 1150 -91 751 415 
Q 353 922 353 1747 
Q 353 2572 751 3078 
Q 1150 3584 1784 3584 
Q 2172 3584 2448 3432 
Q 2725 3281 2906 2969 
z
M 947 1747 
Q 947 1113 1208 752 
Q 1469 391 1925 391 
Q 2381 391 2643 752 
Q 2906 1113 2906 1747 
Q 2906 2381 2643 2742 
Q 2381 3103 1925 3103 
Q 1469 3103 1208 2742 
Q 947 2381 947 1747 
z
" transform="scale(0.015625)"/>
      </defs>
      <use xlink:href="#DejaVuSans-6d"/>
      <use xlink:href="#DejaVuSans-61" x="97.412109"/>
      <use xlink:href="#DejaVuSans-78" x="158.691406"/>
      <use xlink:href="#DejaVuSans-2e" x="217.871094"/>
      <use xlink:href="#DejaVuSans-20" x="249.658203"/>
      <use xlink:href="#DejaVuSans-6c" x="281.445312"/>
      <use xlink:href="#DejaVuSans-69" x="309.228516"/>
      <use xlink:href="#DejaVuSans-6b" x="337.011719"/>
      <use xlink:href="#DejaVuSans-65" x="391.296875"/>
      <use xlink:href="#DejaVuSans-6c" x="452.820312"/>
      <use xlink:href="#DejaVuSans-69" x="480.603516"/>
      <use xlink:href="#DejaVuSans-68" x="508.386719"/>
      <use xlink:href="#DejaVuSans-6f" x="571.765625"/>
      <use xlink:href="#DejaVuSans-6f" x="632.947266"/>
      <use xlink:href="#DejaVuSans-64" x="694.128906"/>
     </g>
    </g>
    <g id="line2d_22">
     <path d="M 151.245871 368.989087 
L 161.245871 368.989087 
L 171.245871 368.989087 
" style="fill: none; stroke: #b22222; stroke-opacity: 0.9; stroke-width: 1.5; stroke-linecap: square"/>
    </g>
    <g id="text_20">
     <!-- max. a posteriori -->
     <g transform="translate(179.245871 372.489087) scale(0.1 -0.1)">
      <defs>
       <path id="DejaVuSans-70" d="M 1159 525 
L 1159 -1331 
L 581 -1331 
L 581 3500 
L 1159 3500 
L 1159 2969 
Q 1341 3281 1617 3432 
Q 1894 3584 2278 3584 
Q 2916 3584 3314 3078 
Q 3713 2572 3713 1747 
Q 3713 922 3314 415 
Q 2916 -91 2278 -91 
Q 1894 -91 1617 61 
Q 1341 213 1159 525 
z
M 3116 1747 
Q 3116 2381 2855 2742 
Q 2594 3103 2138 3103 
Q 1681 3103 1420 2742 
Q 1159 2381 1159 1747 
Q 1159 1113 1420 752 
Q 1681 391 2138 391 
Q 2594 391 2855 752 
Q 3116 1113 3116 1747 
z
" transform="scale(0.015625)"/>
       <path id="DejaVuSans-73" d="M 2834 3397 
L 2834 2853 
Q 2591 2978 2328 3040 
Q 2066 3103 1784 3103 
Q 1356 3103 1142 2972 
Q 928 2841 928 2578 
Q 928 2378 1081 2264 
Q 1234 2150 1697 2047 
L 1894 2003 
Q 2506 1872 2764 1633 
Q 3022 1394 3022 966 
Q 3022 478 2636 193 
Q 2250 -91 1575 -91 
Q 1294 -91 989 -36 
Q 684 19 347 128 
L 347 722 
Q 666 556 975 473 
Q 1284 391 1588 391 
Q 1994 391 2212 530 
Q 2431 669 2431 922 
Q 2431 1156 2273 1281 
Q 2116 1406 1581 1522 
L 1381 1569 
Q 847 1681 609 1914 
Q 372 2147 372 2553 
Q 372 3047 722 3315 
Q 1072 3584 1716 3584 
Q 2034 3584 2315 3537 
Q 2597 3491 2834 3397 
z
" transform="scale(0.015625)"/>
      </defs>
      <use xlink:href="#DejaVuSans-6d"/>
      <use xlink:href="#DejaVuSans-61" x="97.412109"/>
      <use xlink:href="#DejaVuSans-78" x="158.691406"/>
      <use xlink:href="#DejaVuSans-2e" x="217.871094"/>
      <use xlink:href="#DejaVuSans-20" x="249.658203"/>
      <use xlink:href="#DejaVuSans-61" x="281.445312"/>
      <use xlink:href="#DejaVuSans-20" x="342.724609"/>
      <use xlink:href="#DejaVuSans-70" x="374.511719"/>
      <use xlink:href="#DejaVuSans-6f" x="437.988281"/>
      <use xlink:href="#DejaVuSans-73" x="499.169922"/>
      <use xlink:href="#DejaVuSans-74" x="551.269531"/>
      <use xlink:href="#DejaVuSans-65" x="590.478516"/>
      <use xlink:href="#DejaVuSans-72" x="652.001953"/>
      <use xlink:href="#DejaVuSans-69" x="693.115234"/>
      <use xlink:href="#DejaVuSans-6f" x="720.898438"/>
      <use xlink:href="#DejaVuSans-72" x="782.080078"/>
      <use xlink:href="#DejaVuSans-69" x="823.193359"/>
     </g>
    </g>
    <g id="patch_8">
     <path d="M 151.245871 387.167212 
L 171.245871 387.167212 
L 171.245871 380.167212 
L 151.245871 380.167212 
z
" style="fill: #ffe4c4; fill-opacity: 0.5; stroke: #ffe4c4; stroke-opacity: 0.5; stroke-linejoin: miter"/>
    </g>
    <g id="text_21">
     <!-- epistemic uncertainty -->
     <g transform="translate(179.245871 387.167212) scale(0.1 -0.1)">
      <defs>
       <path id="DejaVuSans-63" d="M 3122 3366 
L 3122 2828 
Q 2878 2963 2633 3030 
Q 2388 3097 2138 3097 
Q 1578 3097 1268 2742 
Q 959 2388 959 1747 
Q 959 1106 1268 751 
Q 1578 397 2138 397 
Q 2388 397 2633 464 
Q 2878 531 3122 666 
L 3122 134 
Q 2881 22 2623 -34 
Q 2366 -91 2075 -91 
Q 1284 -91 818 406 
Q 353 903 353 1747 
Q 353 2603 823 3093 
Q 1294 3584 2113 3584 
Q 2378 3584 2631 3529 
Q 2884 3475 3122 3366 
z
" transform="scale(0.015625)"/>
       <path id="DejaVuSans-6e" d="M 3513 2113 
L 3513 0 
L 2938 0 
L 2938 2094 
Q 2938 2591 2744 2837 
Q 2550 3084 2163 3084 
Q 1697 3084 1428 2787 
Q 1159 2491 1159 1978 
L 1159 0 
L 581 0 
L 581 3500 
L 1159 3500 
L 1159 2956 
Q 1366 3272 1645 3428 
Q 1925 3584 2291 3584 
Q 2894 3584 3203 3211 
Q 3513 2838 3513 2113 
z
" transform="scale(0.015625)"/>
       <path id="DejaVuSans-79" d="M 2059 -325 
Q 1816 -950 1584 -1140 
Q 1353 -1331 966 -1331 
L 506 -1331 
L 506 -850 
L 844 -850 
Q 1081 -850 1212 -737 
Q 1344 -625 1503 -206 
L 1606 56 
L 191 3500 
L 800 3500 
L 1894 763 
L 2988 3500 
L 3597 3500 
L 2059 -325 
z
" transform="scale(0.015625)"/>
      </defs>
      <use xlink:href="#DejaVuSans-65"/>
      <use xlink:href="#DejaVuSans-70" x="61.523438"/>
      <use xlink:href="#DejaVuSans-69" x="125"/>
      <use xlink:href="#DejaVuSans-73" x="152.783203"/>
      <use xlink:href="#DejaVuSans-74" x="204.882812"/>
      <use xlink:href="#DejaVuSans-65" x="244.091797"/>
      <use xlink:href="#DejaVuSans-6d" x="305.615234"/>
      <use xlink:href="#DejaVuSans-69" x="403.027344"/>
      <use xlink:href="#DejaVuSans-63" x="430.810547"/>
      <use xlink:href="#DejaVuSans-20" x="485.791016"/>
      <use xlink:href="#DejaVuSans-75" x="517.578125"/>
      <use xlink:href="#DejaVuSans-6e" x="580.957031"/>
      <use xlink:href="#DejaVuSans-63" x="644.335938"/>
      <use xlink:href="#DejaVuSans-65" x="699.316406"/>
      <use xlink:href="#DejaVuSans-72" x="760.839844"/>
      <use xlink:href="#DejaVuSans-74" x="801.953125"/>
      <use xlink:href="#DejaVuSans-61" x="841.162109"/>
      <use xlink:href="#DejaVuSans-69" x="902.441406"/>
      <use xlink:href="#DejaVuSans-6e" x="930.224609"/>
      <use xlink:href="#DejaVuSans-74" x="993.603516"/>
      <use xlink:href="#DejaVuSans-79" x="1032.8125"/>
     </g>
    </g>
    <g id="patch_9">
     <path d="M 151.245871 401.845337 
L 171.245871 401.845337 
L 171.245871 394.845337 
L 151.245871 394.845337 
z
" style="fill: #d8bfd8; fill-opacity: 0.25; stroke: #d8bfd8; stroke-opacity: 0.25; stroke-linejoin: miter"/>
    </g>
    <g id="text_22">
     <!-- aleatoric uncertainty -->
     <g transform="translate(179.245871 401.845337) scale(0.1 -0.1)">
      <use xlink:href="#DejaVuSans-61"/>
      <use xlink:href="#DejaVuSans-6c" x="61.279297"/>
      <use xlink:href="#DejaVuSans-65" x="89.0625"/>
      <use xlink:href="#DejaVuSans-61" x="150.585938"/>
      <use xlink:href="#DejaVuSans-74" x="211.865234"/>
      <use xlink:href="#DejaVuSans-6f" x="251.074219"/>
      <use xlink:href="#DejaVuSans-72" x="312.255859"/>
      <use xlink:href="#DejaVuSans-69" x="353.369141"/>
      <use xlink:href="#DejaVuSans-63" x="381.152344"/>
      <use xlink:href="#DejaVuSans-20" x="436.132812"/>
      <use xlink:href="#DejaVuSans-75" x="467.919922"/>
      <use xlink:href="#DejaVuSans-6e" x="531.298828"/>
      <use xlink:href="#DejaVuSans-63" x="594.677734"/>
      <use xlink:href="#DejaVuSans-65" x="649.658203"/>
      <use xlink:href="#DejaVuSans-72" x="711.181641"/>
      <use xlink:href="#DejaVuSans-74" x="752.294922"/>
      <use xlink:href="#DejaVuSans-61" x="791.503906"/>
      <use xlink:href="#DejaVuSans-69" x="852.783203"/>
      <use xlink:href="#DejaVuSans-6e" x="880.566406"/>
      <use xlink:href="#DejaVuSans-74" x="943.945312"/>
      <use xlink:href="#DejaVuSans-79" x="983.154297"/>
     </g>
    </g>
   </g>
  </g>
 </g>
 <defs>
  <clipPath id="p30ccea457b">
   <rect x="42.358594" y="7.2" width="357.12" height="266.112"/>
  </clipPath>
 </defs>
</svg>
